<?xml version="1.0" encoding="UTF-8" standalone="no"?>
<!-- Created with Inkscape (http://www.inkscape.org/) -->

<svg
   version="1.1"
   id="svg2"
   xml:space="preserve"
   width="787.25476"
   height="178.9332"
   viewBox="0 0 787.25476 178.9332"
   sodipodi:docname="ugoe_logo.svg"
   inkscape:version="1.1.2 (0a00cf5339, 2022-02-04, custom)"
   xmlns:inkscape="http://www.inkscape.org/namespaces/inkscape"
   xmlns:sodipodi="http://sodipodi.sourceforge.net/DTD/sodipodi-0.dtd"
   xmlns="http://www.w3.org/2000/svg"
   xmlns:svg="http://www.w3.org/2000/svg"><defs
     id="defs6" /><sodipodi:namedview
     id="namedview4"
     pagecolor="#ffffff"
     bordercolor="#666666"
     borderopacity="1.0"
     inkscape:pageshadow="2"
     inkscape:pageopacity="0.0"
     inkscape:pagecheckerboard="0"
     showgrid="false"
     fit-margin-top="30"
     fit-margin-left="60"
     fit-margin-right="60"
     fit-margin-bottom="30"
     inkscape:zoom="1.7452214"
     inkscape:cx="204.55857"
     inkscape:cy="89.38694"
     inkscape:window-width="1834"
     inkscape:window-height="1048"
     inkscape:window-x="86"
     inkscape:window-y="32"
     inkscape:window-maximized="1"
     inkscape:current-layer="g8" /><g
     id="g8"
     inkscape:groupmode="layer"
     inkscape:label="ink_ext_XXXXXX"
     transform="matrix(1.3333333,0,0,-1.3333333,0.94013481,178.28533)"><g
       id="g10"
       transform="scale(0.1)"><path
         d="m 1814.59,531.188 v -20.7 h 59.4 c -0.9,-12.3 -3,-20.101 -8.1,-28.203 -12,-20.097 -37.5,-34.199 -61.5,-34.199 -44.4,0 -81.3,36.902 -81.3,81.902 0,46.5 36.6,83.098 83.1,83.098 26.4,0 47.1,-11.699 66.6,-37.5 l 16.5,15 c -25.5,30.301 -50.4,43.5 -83.1,43.5 -58.8,0 -105.6,-45.898 -105.6,-103.801 0,-56.398 46.5,-103.199 102.6,-103.199 29.7,0 58.2,13.5 76.2,36 13.5,16.801 18.6,34.5 18.6,63 v 5.102 z m 216.06,102.898 c -57.3,0 -104.4,-46.801 -104.4,-103.801 0,-57 46.8,-103.199 104.4,-103.199 56.7,0 103.8,46.801 103.8,103.5 0,56.699 -47.1,103.5 -103.8,103.5 z m -0.3,-21 c 45.3,0 81.6,-36.898 81.6,-82.801 0,-45.297 -36.6,-82.199 -81.6,-82.199 -45,0 -81.6,36.902 -81.6,82.199 0,46.203 36.3,82.801 81.6,82.801 z m -28.5,68.102 c -8.4,0 -15.3,-6.903 -15.3,-15.301 0,-8.399 6.9,-15.301 15.3,-15.301 8.4,0 15.3,6.902 15.3,15.301 0,8.398 -6.9,15.301 -15.3,15.301 z m 57,0 c -8.4,0 -15.3,-6.903 -15.3,-15.301 0,-8.399 6.9,-15.301 15.3,-15.301 8.4,0 15.3,6.902 15.3,15.301 0,8.398 -6.9,15.301 -15.3,15.301 z m 152.1,-71.102 h 48.6 v 20.699 h -119.4 v -20.699 h 48.3 V 430.688 h 22.5 z m 136.55,0 h 48.6 v 20.699 H 2276.7 V 610.086 H 2325 V 430.688 h 22.5 z m 99.03,20.699 h -22.5 V 430.688 h 22.5 z m 51.23,-200.097 h 22.5 v 154.199 l 155.7,-163.199 v 209.097 h -22.5 V 475.688 l -155.7,163.5 z m 332.34,100.5 v -20.7 h 59.4 c -0.9,-12.3 -3,-20.101 -8.1,-28.203 -12,-20.097 -37.5,-34.199 -61.5,-34.199 -44.4,0 -81.3,36.902 -81.3,81.902 0,46.5 36.6,83.098 83.1,83.098 26.4,0 47.1,-11.699 66.6,-37.5 l 16.5,15 c -25.5,30.301 -50.4,43.5 -83.1,43.5 -58.8,0 -105.6,-45.898 -105.6,-103.801 0,-56.398 46.5,-103.199 102.6,-103.199 29.7,0 58.2,13.5 76.2,36 13.5,16.801 18.6,34.5 18.6,63 v 5.102 z m 226.71,78.898 v 20.699 h -103.5 V 430.688 h 103.5 v 20.699 h -81 v 78.301 h 78.9 v 20.699 h -78.9 v 59.699 z m 39.51,-179.398 h 22.5 v 154.199 l 155.7,-163.199 v 209.097 h -22.5 V 475.688 l -155.7,163.5 v -208.5"
         style="fill:#231f20;fill-opacity:1;fill-rule:nonzero;stroke:none"
         id="path12" /><path
         d="m 3913.97,970.785 h -22.5 V 842.086 c 0,-21.898 3.6,-35.098 13.2,-47.398 12.9,-17.102 35.1,-27.602 58.2,-27.602 22.8,0 44.7,10.5 57.9,27.602 9.6,12.3 13.2,25.8 13.2,47.398 v 128.699 h -22.5 V 848.086 c 0,-20.699 -1.5,-29.699 -6.6,-38.398 -7.8,-12.602 -24.9,-21.602 -42,-21.602 -17.4,0 -34.5,9 -42.3,21.602 -5.1,8.699 -6.6,17.699 -6.6,38.398 z m 171.29,-200.097 h 22.5 v 154.199 l 155.7,-163.199 v 209.097 h -22.5 V 815.688 l -155.7,163.5 z m 252.39,200.097 h -22.5 V 770.688 h 22.5 z m 51.21,0 h -24.6 l 81,-211.797 81.3,211.797 h -24.3 l -56.7,-152.398 z m 268.11,-20.699 v 20.699 H 4553.46 V 770.688 h 103.51 v 20.699 h -81.01 v 78.301 h 78.91 v 20.699 h -78.91 v 59.699 z m 91.7,-90 c 30.9,3 50.4,24.301 50.4,55.5 0,18 -8.7,35.102 -22.2,44.402 -11.4,7.797 -25.2,10.797 -48,10.797 h -32.4 V 770.688 h 22.5 v 87.597 h 5.7 l 60.3,-87.597 h 27.3 z m -29.7,18 v 72 h 13.2 c 29.4,0 45,-12 45,-34.5 0,-24.598 -15.3,-37.5 -44.1,-37.5 z m 227.91,64.801 c -12,20.699 -29.1,31.199 -51.6,31.199 -31.8,0 -56.1,-22.199 -56.1,-51.301 0,-22.5 11.7,-36.597 40.5,-49.5 l 6,-2.699 6,-2.699 6,-3 c 6.6,-2.699 12.3,-5.699 17.4,-9 11.1,-6.899 16.5,-16.199 16.5,-28.5 0,-22.199 -17.7,-39.301 -40.8,-39.301 -21,0 -34.8,12.602 -40.2,36.602 l -21.6,-6 c 7.8,-33 30,-51.602 62.1,-51.602 35.4,0 63,27.301 63,61.801 0,24.898 -13.2,40.801 -45.3,54.898 l -6.3,2.703 -6.3,2.7 -6.3,3 c -5.7,2.398 -10.8,5.398 -15.6,8.398 -8.4,5.699 -12.6,12.902 -12.6,21.602 0,17.699 14.4,30.898 33,30.898 15.6,0 24.3,-5.398 34.5,-21.598 z m 69.69,27.898 h -22.5 V 770.688 h 22.5 z m 98.28,-20.699 h 48.6 v 20.699 h -119.4 v -20.699 h 48.3 V 770.688 h 22.5 z m 173.51,-122.699 23.7,-56.699 h 24.6 l -90,209.699 -92.1,-209.699 h 24.3 l 24,56.699 z m -8.7,20.699 h -67.5 l 34.2,80.102 z m -60.6,173.104 c -8.4,0 -15.3,-6.9 -15.3,-15.3 0,-8.402 6.9,-15.304 15.3,-15.304 8.4,0 15.3,6.902 15.3,15.304 0,8.4 -6.9,15.3 -15.3,15.3 z m 57,0 c -8.4,0 -15.3,-6.9 -15.3,-15.3 0,-8.402 6.9,-15.304 15.3,-15.304 8.4,0 15.3,6.902 15.3,15.304 0,8.4 -6.9,15.3 -15.3,15.3 z m 122.7,-71.104 h 48.6 v 20.699 h -119.4 v -20.699 h 48.3 V 770.688 h 22.5 v 179.398"
         style="fill:#231f20;fill-opacity:1;fill-rule:nonzero;stroke:none"
         id="path14" /><path
         d="m 1814.59,871.188 v -20.7 h 59.4 c -0.9,-12.3 -3,-20.101 -8.1,-28.203 -12,-20.097 -37.5,-34.199 -61.5,-34.199 -44.4,0 -81.3,36.902 -81.3,81.902 0,46.5 36.6,83.098 83.1,83.098 26.4,0 47.1,-11.699 66.6,-37.5 l 16.5,15 c -25.5,30.301 -50.4,43.5 -83.1,43.5 -58.8,0 -105.6,-45.898 -105.6,-103.801 0,-56.398 46.5,-103.199 102.6,-103.199 29.7,0 58.2,13.5 76.2,36 13.5,16.801 18.6,34.5 18.6,63 v 5.102 z m 226.71,78.898 v 20.699 H 1937.8 V 770.688 h 103.5 v 20.699 h -81 v 78.301 h 78.9 v 20.699 h -78.9 v 59.699 z m 131.25,24 c -57.3,0 -104.4,-46.801 -104.4,-103.801 0,-57 46.8,-103.199 104.4,-103.199 56.7,0 103.8,46.801 103.8,103.5 0,56.699 -47.1,103.5 -103.8,103.5 z m -0.3,-21 c 45.3,0 81.6,-36.898 81.6,-82.801 0,-45.297 -36.6,-82.199 -81.6,-82.199 -45,0 -81.6,36.902 -81.6,82.199 0,46.203 36.3,82.801 81.6,82.801 z m 196.1,-93 c 30.9,3 50.4,24.301 50.4,55.5 0,18 -8.7,35.102 -22.2,44.402 -11.4,7.797 -25.2,10.797 -48,10.797 h -32.4 V 770.688 h 22.5 v 87.597 h 5.7 l 60.3,-87.597 h 27.3 z m -29.7,18 v 72 h 13.2 c 29.4,0 45,-12 45,-34.5 0,-24.598 -15.3,-37.5 -44.1,-37.5 z m 224.01,-6.898 v -20.7 h 59.4 c -0.9,-12.3 -3,-20.101 -8.1,-28.203 -12,-20.097 -37.5,-34.199 -61.5,-34.199 -44.4,0 -81.3,36.902 -81.3,81.902 0,46.5 36.6,83.098 83.1,83.098 26.4,0 47.1,-11.699 66.6,-37.5 l 16.5,15 c -25.5,30.301 -50.4,43.5 -83.1,43.5 -58.8,0 -105.6,-45.898 -105.6,-103.801 0,-56.398 46.5,-103.199 102.6,-103.199 29.7,0 58.2,13.5 76.2,36 13.5,16.801 18.6,34.5 18.6,63 v 5.102 z m 113.25,-2 v -19.2 h 54.3 v 19.2 z m 199.2,-41.801 23.7,-56.699 h 24.6 l -90,209.699 -92.1,-209.699 h 24.3 l 24,56.699 z m -8.7,20.699 h -67.5 l 34.2,80.102 z m 97.23,122.699 h -22.5 V 842.086 c 0,-21.898 3.6,-35.098 13.2,-47.398 12.9,-17.102 35.1,-27.602 58.2,-27.602 22.8,0 44.7,10.5 57.9,27.602 9.6,12.3 13.2,25.8 13.2,47.398 v 128.699 h -22.5 V 848.086 c 0,-20.699 -1.5,-29.699 -6.6,-38.398 -7.8,-12.602 -24.9,-21.602 -42,-21.602 -17.4,0 -34.5,9 -42.3,21.602 -5.1,8.699 -6.6,17.699 -6.6,38.398 z m 272.85,-99.597 v -20.7 h 59.4 c -0.9,-12.3 -3,-20.101 -8.1,-28.203 -12,-20.097 -37.5,-34.199 -61.5,-34.199 -44.4,0 -81.3,36.902 -81.3,81.902 0,46.5 36.6,83.098 83.1,83.098 26.4,0 47.1,-11.699 66.6,-37.5 l 16.5,15 c -25.5,30.301 -50.4,43.5 -83.1,43.5 -58.8,0 -105.6,-45.898 -105.6,-103.801 0,-56.398 46.5,-103.199 102.6,-103.199 29.7,0 58.2,13.5 76.2,36 13.5,16.801 18.6,34.5 18.6,63 v 5.102 z m 144.36,99.597 h -22.5 V 842.086 c 0,-21.898 3.6,-35.098 13.2,-47.398 12.9,-17.102 35.1,-27.602 58.2,-27.602 22.8,0 44.7,10.5 57.9,27.602 9.6,12.3 13.2,25.8 13.2,47.398 v 128.699 h -22.5 V 848.086 c 0,-20.699 -1.5,-29.699 -6.6,-38.398 -7.8,-12.602 -24.9,-21.602 -42,-21.602 -17.4,0 -34.5,9 -42.3,21.602 -5.1,8.699 -6.6,17.699 -6.6,38.398 z m 274.55,-27.898 c -12,20.699 -29.1,31.199 -51.6,31.199 -31.8,0 -56.1,-22.199 -56.1,-51.301 0,-22.5 11.7,-36.597 40.5,-49.5 l 6,-2.699 6,-2.699 6,-3 c 6.6,-2.699 12.3,-5.699 17.4,-9 11.1,-6.899 16.5,-16.199 16.5,-28.5 0,-22.199 -17.7,-39.301 -40.8,-39.301 -21,0 -34.8,12.602 -40.2,36.602 l -21.6,-6 c 7.8,-33 30,-51.602 62.1,-51.602 35.4,0 63,27.301 63,61.801 0,24.898 -13.2,40.801 -45.3,54.898 l -6.3,2.703 -6.3,2.7 -6.3,3 c -5.7,2.398 -10.8,5.398 -15.6,8.398 -8.4,5.699 -12.6,12.902 -12.6,21.602 0,17.699 14.4,30.898 33,30.898 15.6,0 24.3,-5.398 34.5,-21.598 z m 95.61,7.199 h 48.6 v 20.699 h -119.4 v -20.699 h 48.3 V 770.688 h 22.5 z m 49.44,-80.898 v -19.2 h 54.3 v 19.2 h -54.3"
         style="fill:#231f20;fill-opacity:1;fill-rule:nonzero;stroke:none"
         id="path16" /><path
         d="M 1272.38,1112.14 1029.34,584.227 C 1001.31,534.277 948.352,500.25 886.98,500.25 v -90.711 c 108.129,0 200.39,67.441 237.29,162.527 h 284.62 l 111.63,-252.105 h 108.78 z m -1.7,-222.687 97.69,-223.965 h -207.16 z"
         style="fill:#68bceb;fill-opacity:1;fill-rule:nonzero;stroke:none"
         id="path18" /><path
         d="m 1093.11,940.699 42.6,91.351 c -70.96,48.07 -156.562,76.16 -248.726,76.16 -245.234,0 -444.035,-198.8 -444.035,-444.034 0,-245.235 198.801,-444.035 444.035,-444.035 213.646,0 391.996,150.906 434.406,351.925 H 1219.45 C 1179.1,426.168 1045.72,318.898 886.984,318.898 c -190.691,0 -345.273,154.586 -345.273,345.278 0,190.687 154.582,345.274 345.273,345.274 77.375,0 148.556,-25.766 206.126,-68.751 z M 886.98,572.086 h 134.48 c 2.71,3.984 5.51,7.918 7.88,12.141 l 37.47,81.402 H 886.98 v -93.543"
         style="fill:#0e5f9d;fill-opacity:1;fill-rule:nonzero;stroke:none"
         id="path20" /></g></g></svg>
