<?xml version="1.0" encoding="UTF-8" standalone="no"?>
<svg
   xmlns:dc="http://purl.org/dc/elements/1.1/"
   xmlns:cc="http://creativecommons.org/ns#"
   xmlns:rdf="http://www.w3.org/1999/02/22-rdf-syntax-ns#"
   xmlns:svg="http://www.w3.org/2000/svg"
   xmlns="http://www.w3.org/2000/svg"
   xmlns:sodipodi="http://sodipodi.sourceforge.net/DTD/sodipodi-0.dtd"
   xmlns:inkscape="http://www.inkscape.org/namespaces/inkscape"
   version="1.1"
   id="svg2"
   xml:space="preserve"
   width="756"
   height="542.66669"
   viewBox="0 0 756 542.66669"
   sodipodi:docname="MyModel_1_loss.svg"
   inkscape:version="1.0.2 (e86c870879, 2021-01-15, custom)"><metadata
     id="metadata8"><rdf:RDF><cc:Work
         rdf:about=""><dc:format>image/svg+xml</dc:format><dc:type
           rdf:resource="http://purl.org/dc/dcmitype/StillImage" /></cc:Work></rdf:RDF></metadata><defs
     id="defs6" /><sodipodi:namedview
     pagecolor="#ffffff"
     bordercolor="#666666"
     borderopacity="1"
     objecttolerance="10"
     gridtolerance="10"
     guidetolerance="10"
     inkscape:pageopacity="0"
     inkscape:pageshadow="2"
     inkscape:window-width="1920"
     inkscape:window-height="1017"
     id="namedview4"
     inkscape:document-rotation="0"
     showgrid="false"
     inkscape:zoom="1.4938272"
     inkscape:cx="378"
     inkscape:cy="271.33334"
     inkscape:window-x="-8"
     inkscape:window-y="-1"
     inkscape:window-maximized="1"
     inkscape:current-layer="g10" /><g
     id="g10"
     inkscape:groupmode="layer"
     inkscape:label="ink_ext_XXXXXX"
     transform="matrix(1.3333333,0,0,-1.3333333,0,542.66667)"><path
       d="M 0,0 H 567 V 407.5 H 0 Z"
       style="fill:#ffffff;fill-opacity:1;fill-rule:evenodd;stroke:none;stroke-width:0.1"
       id="path14" /><path
       d="M 0,0 H 567 V 407.5 H 0 Z"
       style="fill:none;stroke:#ffffff;stroke-width:0.25;stroke-linecap:butt;stroke-linejoin:miter;stroke-miterlimit:10;stroke-dasharray:none;stroke-opacity:1"
       id="path16" /><path
       d="M 90.75,65.25 H 538.5 v 313.5 H 90.75 Z"
       style="fill:none;stroke:#000000;stroke-width:0.75;stroke-linecap:butt;stroke-linejoin:miter;stroke-miterlimit:10;stroke-dasharray:none;stroke-opacity:1"
       id="path18" /><path
       d="M 90.75,65.25 H 538.5 v 313.5 H 90.75 Z"
       style="fill:none;stroke:#000000;stroke-width:0.75;stroke-linecap:butt;stroke-linejoin:miter;stroke-miterlimit:10;stroke-dasharray:none;stroke-opacity:1"
       id="path20" /><path
       d="M 90.75,65.25 H 538.5 v 313.5 H 90.75 Z"
       style="fill:none;stroke:#000000;stroke-width:0.75;stroke-linecap:butt;stroke-linejoin:miter;stroke-miterlimit:10;stroke-dasharray:none;stroke-opacity:1"
       id="path22" /><path
       d="M 90.75,65.25 H 538.5 v 313.5 H 90.75 Z"
       style="fill:none;stroke:#000000;stroke-width:0.75;stroke-linecap:butt;stroke-linejoin:miter;stroke-miterlimit:10;stroke-dasharray:none;stroke-opacity:1"
       id="path24" /><path
       d="M 90.75,65.25 H 538.5"
       style="fill:none;stroke:#000000;stroke-width:0.75;stroke-linecap:butt;stroke-linejoin:miter;stroke-miterlimit:10;stroke-dasharray:none;stroke-opacity:1"
       id="path26" /><path
       d="M 90.75,70 V 65.25"
       style="fill:none;stroke:#000000;stroke-width:0.75;stroke-linecap:butt;stroke-linejoin:miter;stroke-miterlimit:10;stroke-dasharray:none;stroke-opacity:1"
       id="path28" /><path
       d="m 99.75,74.75 v -9.5"
       style="fill:none;stroke:#000000;stroke-width:0.75;stroke-linecap:butt;stroke-linejoin:miter;stroke-miterlimit:10;stroke-dasharray:none;stroke-opacity:1"
       id="path30" /><g
       id="g32"><text
         transform="matrix(1,0,0,-1,96.15,39.8844)"
         style="font-variant:normal;font-weight:normal;font-size:19.23px;font-family:Helvetica;-inkscape-font-specification:Helvetica;writing-mode:lr-tb;fill:#000000;fill-opacity:1;fill-rule:nonzero;stroke:none"
         id="text36"><tspan
           x="0"
           y="0"
           id="tspan34">1</tspan></text></g><path
       d="M 160,70 V 65.25"
       style="fill:none;stroke:#000000;stroke-width:0.75;stroke-linecap:butt;stroke-linejoin:miter;stroke-miterlimit:10;stroke-dasharray:none;stroke-opacity:1"
       id="path38" /><path
       d="M 195,70 V 65.25"
       style="fill:none;stroke:#000000;stroke-width:0.75;stroke-linecap:butt;stroke-linejoin:miter;stroke-miterlimit:10;stroke-dasharray:none;stroke-opacity:1"
       id="path40" /><path
       d="M 220,70 V 65.25"
       style="fill:none;stroke:#000000;stroke-width:0.75;stroke-linecap:butt;stroke-linejoin:miter;stroke-miterlimit:10;stroke-dasharray:none;stroke-opacity:1"
       id="path42" /><path
       d="M 239.5,70 V 65.25"
       style="fill:none;stroke:#000000;stroke-width:0.75;stroke-linecap:butt;stroke-linejoin:miter;stroke-miterlimit:10;stroke-dasharray:none;stroke-opacity:1"
       id="path44" /><path
       d="M 255.25,70 V 65.25"
       style="fill:none;stroke:#000000;stroke-width:0.75;stroke-linecap:butt;stroke-linejoin:miter;stroke-miterlimit:10;stroke-dasharray:none;stroke-opacity:1"
       id="path46" /><path
       d="M 268.5,70 V 65.25"
       style="fill:none;stroke:#000000;stroke-width:0.75;stroke-linecap:butt;stroke-linejoin:miter;stroke-miterlimit:10;stroke-dasharray:none;stroke-opacity:1"
       id="path48" /><path
       d="M 280.25,70 V 65.25"
       style="fill:none;stroke:#000000;stroke-width:0.75;stroke-linecap:butt;stroke-linejoin:miter;stroke-miterlimit:10;stroke-dasharray:none;stroke-opacity:1"
       id="path50" /><path
       d="M 290.5,70 V 65.25"
       style="fill:none;stroke:#000000;stroke-width:0.75;stroke-linecap:butt;stroke-linejoin:miter;stroke-miterlimit:10;stroke-dasharray:none;stroke-opacity:1"
       id="path52" /><path
       d="m 299.5,74.75 v -9.5"
       style="fill:none;stroke:#000000;stroke-width:0.75;stroke-linecap:butt;stroke-linejoin:miter;stroke-miterlimit:10;stroke-dasharray:none;stroke-opacity:1"
       id="path54" /><g
       id="g56"><text
         transform="matrix(1,0,0,-1,288.45,39.8844)"
         style="font-variant:normal;font-weight:normal;font-size:19.23px;font-family:Helvetica;-inkscape-font-specification:Helvetica;writing-mode:lr-tb;fill:#000000;fill-opacity:1;fill-rule:nonzero;stroke:none"
         id="text60"><tspan
           x="0 10.69188"
           y="0"
           sodipodi:role="line"
           id="tspan58">10</tspan></text></g><path
       d="M 359.75,70 V 65.25"
       style="fill:none;stroke:#000000;stroke-width:0.75;stroke-linecap:butt;stroke-linejoin:miter;stroke-miterlimit:10;stroke-dasharray:none;stroke-opacity:1"
       id="path62" /><path
       d="M 394.75,70 V 65.25"
       style="fill:none;stroke:#000000;stroke-width:0.75;stroke-linecap:butt;stroke-linejoin:miter;stroke-miterlimit:10;stroke-dasharray:none;stroke-opacity:1"
       id="path64" /><path
       d="M 419.75,70 V 65.25"
       style="fill:none;stroke:#000000;stroke-width:0.75;stroke-linecap:butt;stroke-linejoin:miter;stroke-miterlimit:10;stroke-dasharray:none;stroke-opacity:1"
       id="path66" /><path
       d="M 439,70 V 65.25"
       style="fill:none;stroke:#000000;stroke-width:0.75;stroke-linecap:butt;stroke-linejoin:miter;stroke-miterlimit:10;stroke-dasharray:none;stroke-opacity:1"
       id="path68" /><path
       d="M 455,70 V 65.25"
       style="fill:none;stroke:#000000;stroke-width:0.75;stroke-linecap:butt;stroke-linejoin:miter;stroke-miterlimit:10;stroke-dasharray:none;stroke-opacity:1"
       id="path70" /><path
       d="M 468.25,70 V 65.25"
       style="fill:none;stroke:#000000;stroke-width:0.75;stroke-linecap:butt;stroke-linejoin:miter;stroke-miterlimit:10;stroke-dasharray:none;stroke-opacity:1"
       id="path72" /><path
       d="M 479.75,70 V 65.25"
       style="fill:none;stroke:#000000;stroke-width:0.75;stroke-linecap:butt;stroke-linejoin:miter;stroke-miterlimit:10;stroke-dasharray:none;stroke-opacity:1"
       id="path74" /><path
       d="M 490,70 V 65.25"
       style="fill:none;stroke:#000000;stroke-width:0.75;stroke-linecap:butt;stroke-linejoin:miter;stroke-miterlimit:10;stroke-dasharray:none;stroke-opacity:1"
       id="path76" /><path
       d="m 499.25,74.75 v -9.5"
       style="fill:none;stroke:#000000;stroke-width:0.75;stroke-linecap:butt;stroke-linejoin:miter;stroke-miterlimit:10;stroke-dasharray:none;stroke-opacity:1"
       id="path78" /><g
       id="g80"><text
         transform="matrix(1,0,0,-1,504.965,48.4313)"
         style="font-variant:normal;font-weight:normal;font-size:12.82px;font-family:Helvetica;-inkscape-font-specification:Helvetica;writing-mode:lr-tb;fill:#000000;fill-opacity:1;fill-rule:nonzero;stroke:none"
         id="text84"><tspan
           x="0"
           y="0"
           id="tspan82">2</tspan></text><text
         transform="matrix(1,0,0,-1,484.3127,39.88442)"
         style="font-variant:normal;font-weight:normal;font-size:19.23px;font-family:Helvetica;-inkscape-font-specification:Helvetica;writing-mode:lr-tb;fill:#000000;fill-opacity:1;fill-rule:nonzero;stroke:none"
         id="text90"><tspan
           x="0 10.69188"
           y="0"
           sodipodi:role="line"
           id="tspan86">10</tspan><tspan
           x="0.71015602 13.536566 24.228445 34.920326 44.535324"
           y="22.078899"
           sodipodi:role="line"
           id="tspan88">Epoch</tspan></text></g><path
       d="M 90.75,378.75 H 538.5"
       style="fill:none;stroke:#000000;stroke-width:0.75;stroke-linecap:butt;stroke-linejoin:miter;stroke-miterlimit:10;stroke-dasharray:none;stroke-opacity:1"
       id="path92" /><path
       d="m 90.75,374 v 4.75"
       style="fill:none;stroke:#000000;stroke-width:0.75;stroke-linecap:butt;stroke-linejoin:miter;stroke-miterlimit:10;stroke-dasharray:none;stroke-opacity:1"
       id="path94" /><path
       d="m 99.75,369.25 v 9.5"
       style="fill:none;stroke:#000000;stroke-width:0.75;stroke-linecap:butt;stroke-linejoin:miter;stroke-miterlimit:10;stroke-dasharray:none;stroke-opacity:1"
       id="path96" /><path
       d="m 160,374 v 4.75"
       style="fill:none;stroke:#000000;stroke-width:0.75;stroke-linecap:butt;stroke-linejoin:miter;stroke-miterlimit:10;stroke-dasharray:none;stroke-opacity:1"
       id="path98" /><path
       d="m 195,374 v 4.75"
       style="fill:none;stroke:#000000;stroke-width:0.75;stroke-linecap:butt;stroke-linejoin:miter;stroke-miterlimit:10;stroke-dasharray:none;stroke-opacity:1"
       id="path100" /><path
       d="m 220,374 v 4.75"
       style="fill:none;stroke:#000000;stroke-width:0.75;stroke-linecap:butt;stroke-linejoin:miter;stroke-miterlimit:10;stroke-dasharray:none;stroke-opacity:1"
       id="path102" /><path
       d="m 239.5,374 v 4.75"
       style="fill:none;stroke:#000000;stroke-width:0.75;stroke-linecap:butt;stroke-linejoin:miter;stroke-miterlimit:10;stroke-dasharray:none;stroke-opacity:1"
       id="path104" /><path
       d="m 255.25,374 v 4.75"
       style="fill:none;stroke:#000000;stroke-width:0.75;stroke-linecap:butt;stroke-linejoin:miter;stroke-miterlimit:10;stroke-dasharray:none;stroke-opacity:1"
       id="path106" /><path
       d="m 268.5,374 v 4.75"
       style="fill:none;stroke:#000000;stroke-width:0.75;stroke-linecap:butt;stroke-linejoin:miter;stroke-miterlimit:10;stroke-dasharray:none;stroke-opacity:1"
       id="path108" /><path
       d="m 280.25,374 v 4.75"
       style="fill:none;stroke:#000000;stroke-width:0.75;stroke-linecap:butt;stroke-linejoin:miter;stroke-miterlimit:10;stroke-dasharray:none;stroke-opacity:1"
       id="path110" /><path
       d="m 290.5,374 v 4.75"
       style="fill:none;stroke:#000000;stroke-width:0.75;stroke-linecap:butt;stroke-linejoin:miter;stroke-miterlimit:10;stroke-dasharray:none;stroke-opacity:1"
       id="path112" /><path
       d="m 299.5,369.25 v 9.5"
       style="fill:none;stroke:#000000;stroke-width:0.75;stroke-linecap:butt;stroke-linejoin:miter;stroke-miterlimit:10;stroke-dasharray:none;stroke-opacity:1"
       id="path114" /><path
       d="m 359.75,374 v 4.75"
       style="fill:none;stroke:#000000;stroke-width:0.75;stroke-linecap:butt;stroke-linejoin:miter;stroke-miterlimit:10;stroke-dasharray:none;stroke-opacity:1"
       id="path116" /><path
       d="m 394.75,374 v 4.75"
       style="fill:none;stroke:#000000;stroke-width:0.75;stroke-linecap:butt;stroke-linejoin:miter;stroke-miterlimit:10;stroke-dasharray:none;stroke-opacity:1"
       id="path118" /><path
       d="m 419.75,374 v 4.75"
       style="fill:none;stroke:#000000;stroke-width:0.75;stroke-linecap:butt;stroke-linejoin:miter;stroke-miterlimit:10;stroke-dasharray:none;stroke-opacity:1"
       id="path120" /><path
       d="m 439,374 v 4.75"
       style="fill:none;stroke:#000000;stroke-width:0.75;stroke-linecap:butt;stroke-linejoin:miter;stroke-miterlimit:10;stroke-dasharray:none;stroke-opacity:1"
       id="path122" /><path
       d="m 455,374 v 4.75"
       style="fill:none;stroke:#000000;stroke-width:0.75;stroke-linecap:butt;stroke-linejoin:miter;stroke-miterlimit:10;stroke-dasharray:none;stroke-opacity:1"
       id="path124" /><path
       d="m 468.25,374 v 4.75"
       style="fill:none;stroke:#000000;stroke-width:0.75;stroke-linecap:butt;stroke-linejoin:miter;stroke-miterlimit:10;stroke-dasharray:none;stroke-opacity:1"
       id="path126" /><path
       d="m 479.75,374 v 4.75"
       style="fill:none;stroke:#000000;stroke-width:0.75;stroke-linecap:butt;stroke-linejoin:miter;stroke-miterlimit:10;stroke-dasharray:none;stroke-opacity:1"
       id="path128" /><path
       d="m 490,374 v 4.75"
       style="fill:none;stroke:#000000;stroke-width:0.75;stroke-linecap:butt;stroke-linejoin:miter;stroke-miterlimit:10;stroke-dasharray:none;stroke-opacity:1"
       id="path130" /><path
       d="m 499.25,369.25 v 9.5"
       style="fill:none;stroke:#000000;stroke-width:0.75;stroke-linecap:butt;stroke-linejoin:miter;stroke-miterlimit:10;stroke-dasharray:none;stroke-opacity:1"
       id="path132" /><path
       d="m 90.75,65.25 v 313.5"
       style="fill:none;stroke:#000000;stroke-width:0.75;stroke-linecap:butt;stroke-linejoin:miter;stroke-miterlimit:10;stroke-dasharray:none;stroke-opacity:1"
       id="path134" /><path
       d="m 103.75,66.25 h -13"
       style="fill:none;stroke:#000000;stroke-width:0.75;stroke-linecap:butt;stroke-linejoin:miter;stroke-miterlimit:10;stroke-dasharray:none;stroke-opacity:1"
       id="path136" /><path
       d="m 97.25,81.25 h -6.5"
       style="fill:none;stroke:#000000;stroke-width:0.75;stroke-linecap:butt;stroke-linejoin:miter;stroke-miterlimit:10;stroke-dasharray:none;stroke-opacity:1"
       id="path138" /><path
       d="m 97.25,96.25 h -6.5"
       style="fill:none;stroke:#000000;stroke-width:0.75;stroke-linecap:butt;stroke-linejoin:miter;stroke-miterlimit:10;stroke-dasharray:none;stroke-opacity:1"
       id="path140" /><path
       d="m 97.25,111.5 h -6.5"
       style="fill:none;stroke:#000000;stroke-width:0.75;stroke-linecap:butt;stroke-linejoin:miter;stroke-miterlimit:10;stroke-dasharray:none;stroke-opacity:1"
       id="path142" /><path
       d="m 103.75,126.5 h -13"
       style="fill:none;stroke:#000000;stroke-width:0.75;stroke-linecap:butt;stroke-linejoin:miter;stroke-miterlimit:10;stroke-dasharray:none;stroke-opacity:1"
       id="path144" /><path
       d="m 97.25,141.5 h -6.5"
       style="fill:none;stroke:#000000;stroke-width:0.75;stroke-linecap:butt;stroke-linejoin:miter;stroke-miterlimit:10;stroke-dasharray:none;stroke-opacity:1"
       id="path146" /><path
       d="m 97.25,156.5 h -6.5"
       style="fill:none;stroke:#000000;stroke-width:0.75;stroke-linecap:butt;stroke-linejoin:miter;stroke-miterlimit:10;stroke-dasharray:none;stroke-opacity:1"
       id="path148" /><path
       d="m 97.25,171.5 h -6.5"
       style="fill:none;stroke:#000000;stroke-width:0.75;stroke-linecap:butt;stroke-linejoin:miter;stroke-miterlimit:10;stroke-dasharray:none;stroke-opacity:1"
       id="path150" /><path
       d="m 103.75,186.5 h -13"
       style="fill:none;stroke:#000000;stroke-width:0.75;stroke-linecap:butt;stroke-linejoin:miter;stroke-miterlimit:10;stroke-dasharray:none;stroke-opacity:1"
       id="path152" /><path
       d="m 97.25,201.5 h -6.5"
       style="fill:none;stroke:#000000;stroke-width:0.75;stroke-linecap:butt;stroke-linejoin:miter;stroke-miterlimit:10;stroke-dasharray:none;stroke-opacity:1"
       id="path154" /><path
       d="m 97.25,216.5 h -6.5"
       style="fill:none;stroke:#000000;stroke-width:0.75;stroke-linecap:butt;stroke-linejoin:miter;stroke-miterlimit:10;stroke-dasharray:none;stroke-opacity:1"
       id="path156" /><path
       d="m 97.25,231.5 h -6.5"
       style="fill:none;stroke:#000000;stroke-width:0.75;stroke-linecap:butt;stroke-linejoin:miter;stroke-miterlimit:10;stroke-dasharray:none;stroke-opacity:1"
       id="path158" /><path
       d="m 103.75,246.5 h -13"
       style="fill:none;stroke:#000000;stroke-width:0.75;stroke-linecap:butt;stroke-linejoin:miter;stroke-miterlimit:10;stroke-dasharray:none;stroke-opacity:1"
       id="path160" /><path
       d="m 97.25,261.75 h -6.5"
       style="fill:none;stroke:#000000;stroke-width:0.75;stroke-linecap:butt;stroke-linejoin:miter;stroke-miterlimit:10;stroke-dasharray:none;stroke-opacity:1"
       id="path162" /><path
       d="m 97.25,276.75 h -6.5"
       style="fill:none;stroke:#000000;stroke-width:0.75;stroke-linecap:butt;stroke-linejoin:miter;stroke-miterlimit:10;stroke-dasharray:none;stroke-opacity:1"
       id="path164" /><path
       d="m 97.25,291.75 h -6.5"
       style="fill:none;stroke:#000000;stroke-width:0.75;stroke-linecap:butt;stroke-linejoin:miter;stroke-miterlimit:10;stroke-dasharray:none;stroke-opacity:1"
       id="path166" /><path
       d="m 103.75,306.75 h -13"
       style="fill:none;stroke:#000000;stroke-width:0.75;stroke-linecap:butt;stroke-linejoin:miter;stroke-miterlimit:10;stroke-dasharray:none;stroke-opacity:1"
       id="path168" /><path
       d="m 97.25,321.75 h -6.5"
       style="fill:none;stroke:#000000;stroke-width:0.75;stroke-linecap:butt;stroke-linejoin:miter;stroke-miterlimit:10;stroke-dasharray:none;stroke-opacity:1"
       id="path170" /><path
       d="m 97.25,336.75 h -6.5"
       style="fill:none;stroke:#000000;stroke-width:0.75;stroke-linecap:butt;stroke-linejoin:miter;stroke-miterlimit:10;stroke-dasharray:none;stroke-opacity:1"
       id="path172" /><path
       d="m 97.25,351.75 h -6.5"
       style="fill:none;stroke:#000000;stroke-width:0.75;stroke-linecap:butt;stroke-linejoin:miter;stroke-miterlimit:10;stroke-dasharray:none;stroke-opacity:1"
       id="path174" /><path
       d="m 103.75,366.75 h -13"
       style="fill:none;stroke:#000000;stroke-width:0.75;stroke-linecap:butt;stroke-linejoin:miter;stroke-miterlimit:10;stroke-dasharray:none;stroke-opacity:1"
       id="path176" /><path
       d="m 103.75,66.25 h -13"
       style="fill:none;stroke:#000000;stroke-width:0.75;stroke-linecap:butt;stroke-linejoin:miter;stroke-miterlimit:10;stroke-dasharray:none;stroke-opacity:1"
       id="path178" /><path
       d="m 103.75,366.75 h -13"
       style="fill:none;stroke:#000000;stroke-width:0.75;stroke-linecap:butt;stroke-linejoin:miter;stroke-miterlimit:10;stroke-dasharray:none;stroke-opacity:1"
       id="path180" /><g
       id="g182"><text
         transform="matrix(1,0,0,-1,50.5676,59.8266)"
         style="font-variant:normal;font-weight:normal;font-size:19.23px;font-family:Helvetica;-inkscape-font-specification:Helvetica;writing-mode:lr-tb;fill:#000000;fill-opacity:1;fill-rule:nonzero;stroke:none"
         id="text196"><tspan
           x="0 10.69188 16.037821 26.7297"
           y="0"
           sodipodi:role="line"
           id="tspan184">0.84</tspan><tspan
           x="0 10.69188 16.037821 26.7297"
           y="-59.827"
           sodipodi:role="line"
           id="tspan186">0.86</tspan><tspan
           x="0 10.69188 16.037821 26.7297"
           y="-119.6536"
           sodipodi:role="line"
           id="tspan188">0.88</tspan><tspan
           x="10.6836 21.375481 26.72142"
           y="-180.1927"
           sodipodi:role="line"
           id="tspan190">0.9</tspan><tspan
           x="0 10.69188 16.037821 26.7297"
           y="-240.01849"
           sodipodi:role="line"
           id="tspan192">0.92</tspan><tspan
           x="0 10.69188 16.037821 26.7297"
           y="-300.55869"
           sodipodi:role="line"
           id="tspan194">0.94</tspan></text><text
         transform="matrix(0,1,1,0,38.4602,338.305)"
         style="font-variant:normal;font-weight:normal;font-size:19.23px;font-family:Helvetica;-inkscape-font-specification:Helvetica;writing-mode:lr-tb;fill:#000000;fill-opacity:1;fill-rule:nonzero;stroke:none"
         id="text200"><tspan
           x="0 10.69188 21.38376 30.99876"
           y="0"
           sodipodi:role="line"
           id="tspan198">Loss</tspan></text></g><path
       d="m 538.5,65.25 v 313.5"
       style="fill:none;stroke:#000000;stroke-width:0.75;stroke-linecap:butt;stroke-linejoin:miter;stroke-miterlimit:10;stroke-dasharray:none;stroke-opacity:1"
       id="path202" /><path
       d="m 525.5,66.25 h 13"
       style="fill:none;stroke:#000000;stroke-width:0.75;stroke-linecap:butt;stroke-linejoin:miter;stroke-miterlimit:10;stroke-dasharray:none;stroke-opacity:1"
       id="path204" /><path
       d="m 532,81.25 h 6.5"
       style="fill:none;stroke:#000000;stroke-width:0.75;stroke-linecap:butt;stroke-linejoin:miter;stroke-miterlimit:10;stroke-dasharray:none;stroke-opacity:1"
       id="path206" /><path
       d="m 532,96.25 h 6.5"
       style="fill:none;stroke:#000000;stroke-width:0.75;stroke-linecap:butt;stroke-linejoin:miter;stroke-miterlimit:10;stroke-dasharray:none;stroke-opacity:1"
       id="path208" /><path
       d="m 532,111.5 h 6.5"
       style="fill:none;stroke:#000000;stroke-width:0.75;stroke-linecap:butt;stroke-linejoin:miter;stroke-miterlimit:10;stroke-dasharray:none;stroke-opacity:1"
       id="path210" /><path
       d="m 525.5,126.5 h 13"
       style="fill:none;stroke:#000000;stroke-width:0.75;stroke-linecap:butt;stroke-linejoin:miter;stroke-miterlimit:10;stroke-dasharray:none;stroke-opacity:1"
       id="path212" /><path
       d="m 532,141.5 h 6.5"
       style="fill:none;stroke:#000000;stroke-width:0.75;stroke-linecap:butt;stroke-linejoin:miter;stroke-miterlimit:10;stroke-dasharray:none;stroke-opacity:1"
       id="path214" /><path
       d="m 532,156.5 h 6.5"
       style="fill:none;stroke:#000000;stroke-width:0.75;stroke-linecap:butt;stroke-linejoin:miter;stroke-miterlimit:10;stroke-dasharray:none;stroke-opacity:1"
       id="path216" /><path
       d="m 532,171.5 h 6.5"
       style="fill:none;stroke:#000000;stroke-width:0.75;stroke-linecap:butt;stroke-linejoin:miter;stroke-miterlimit:10;stroke-dasharray:none;stroke-opacity:1"
       id="path218" /><path
       d="m 525.5,186.5 h 13"
       style="fill:none;stroke:#000000;stroke-width:0.75;stroke-linecap:butt;stroke-linejoin:miter;stroke-miterlimit:10;stroke-dasharray:none;stroke-opacity:1"
       id="path220" /><path
       d="m 532,201.5 h 6.5"
       style="fill:none;stroke:#000000;stroke-width:0.75;stroke-linecap:butt;stroke-linejoin:miter;stroke-miterlimit:10;stroke-dasharray:none;stroke-opacity:1"
       id="path222" /><path
       d="m 532,216.5 h 6.5"
       style="fill:none;stroke:#000000;stroke-width:0.75;stroke-linecap:butt;stroke-linejoin:miter;stroke-miterlimit:10;stroke-dasharray:none;stroke-opacity:1"
       id="path224" /><path
       d="m 532,231.5 h 6.5"
       style="fill:none;stroke:#000000;stroke-width:0.75;stroke-linecap:butt;stroke-linejoin:miter;stroke-miterlimit:10;stroke-dasharray:none;stroke-opacity:1"
       id="path226" /><path
       d="m 525.5,246.5 h 13"
       style="fill:none;stroke:#000000;stroke-width:0.75;stroke-linecap:butt;stroke-linejoin:miter;stroke-miterlimit:10;stroke-dasharray:none;stroke-opacity:1"
       id="path228" /><path
       d="m 532,261.75 h 6.5"
       style="fill:none;stroke:#000000;stroke-width:0.75;stroke-linecap:butt;stroke-linejoin:miter;stroke-miterlimit:10;stroke-dasharray:none;stroke-opacity:1"
       id="path230" /><path
       d="m 532,276.75 h 6.5"
       style="fill:none;stroke:#000000;stroke-width:0.75;stroke-linecap:butt;stroke-linejoin:miter;stroke-miterlimit:10;stroke-dasharray:none;stroke-opacity:1"
       id="path232" /><path
       d="m 532,291.75 h 6.5"
       style="fill:none;stroke:#000000;stroke-width:0.75;stroke-linecap:butt;stroke-linejoin:miter;stroke-miterlimit:10;stroke-dasharray:none;stroke-opacity:1"
       id="path234" /><path
       d="m 525.5,306.75 h 13"
       style="fill:none;stroke:#000000;stroke-width:0.75;stroke-linecap:butt;stroke-linejoin:miter;stroke-miterlimit:10;stroke-dasharray:none;stroke-opacity:1"
       id="path236" /><path
       d="m 532,321.75 h 6.5"
       style="fill:none;stroke:#000000;stroke-width:0.75;stroke-linecap:butt;stroke-linejoin:miter;stroke-miterlimit:10;stroke-dasharray:none;stroke-opacity:1"
       id="path238" /><path
       d="m 532,336.75 h 6.5"
       style="fill:none;stroke:#000000;stroke-width:0.75;stroke-linecap:butt;stroke-linejoin:miter;stroke-miterlimit:10;stroke-dasharray:none;stroke-opacity:1"
       id="path240" /><path
       d="m 532,351.75 h 6.5"
       style="fill:none;stroke:#000000;stroke-width:0.75;stroke-linecap:butt;stroke-linejoin:miter;stroke-miterlimit:10;stroke-dasharray:none;stroke-opacity:1"
       id="path242" /><path
       d="m 525.5,366.75 h 13"
       style="fill:none;stroke:#000000;stroke-width:0.75;stroke-linecap:butt;stroke-linejoin:miter;stroke-miterlimit:10;stroke-dasharray:none;stroke-opacity:1"
       id="path244" /><path
       d="m 525.5,66.25 h 13"
       style="fill:none;stroke:#000000;stroke-width:0.75;stroke-linecap:butt;stroke-linejoin:miter;stroke-miterlimit:10;stroke-dasharray:none;stroke-opacity:1"
       id="path246" /><path
       d="m 525.5,366.75 h 13"
       style="fill:none;stroke:#000000;stroke-width:0.75;stroke-linecap:butt;stroke-linejoin:miter;stroke-miterlimit:10;stroke-dasharray:none;stroke-opacity:1"
       id="path248" /><path
       d="M 99.75,364.5 160,276.25 195,254 l 25,-7.25 19.5,-14.75 15.75,0.5 13.25,-6.75 11.75,-10.25 10.25,-5 9,-2.5 8.25,-6.25 7.5,-1.25 7,-11 6.5,1.75 6,-5 5.5,-4 5.25,-3.25 5,-6 4.75,5.25 4.5,-2.75 4,-2.5 4.25,-5 3.75,-1.25 3.75,3.25 3.5,-3 3.5,-0.75 3.25,-1.5 3,-7.75 3,2 3,1 3,-5.25 2.75,-0.25 2.5,1 2.75,-6.25 2.5,1 2.25,1 2.5,-3.5 2.25,-2.75 2.25,-1.75 2.25,3.5 H 422 l 2,-3.25 2,-1.5 2,-4 2,3.25 1.75,-3.25 2,-0.5 1.75,3 1.75,0.5 1.75,-3.75 1.75,0.75 1.75,-5.5 1.75,1 1.5,-0.5 1.5,5.25 1.75,-3.25 1.5,-3.75 1.5,2.25 1.5,-1.5 1.5,-3 1.25,0.75 1.5,-2.75 1.5,1 1.25,-5.5 1.25,-0.5 1.5,0.75 1.25,4.25 1.25,-0.5 1.25,-4.5 1.25,-1 1.25,8.5 1.25,-8.25 1.25,-0.25 1,-3.75 1.25,1.5 1.25,-1.75 h 1 l 1.25,-3.75 1,-1.25 1,-0.25 1.25,7.5 1,-6.25 1,-1.5 1,-4.75 h 1 l 1.25,2.25 1,2.75 1,-1 0.75,-0.75 1,-4.25 1,5.25 1,-3.75 1,4.5 0.75,-4 1,-4.75 1,3.75 0.75,-3 1,1.5 0.75,2 1,-6 0.75,-1.75 1,5 0.75,-6 0.75,-2.5 1,5 0.75,-0.25 0.75,-2.25 1,3 0.75,-4.5 0.75,5.5 h 0.75 l 0.75,-8.25 0.75,-1.25 0.75,4 0.75,-2 0.75,1.5 0.75,2 0.75,-3.75 0.75,1.75 0.75,5.5 0.75,-5 0.75,-0.25 0.75,1.75 0.5,1 0.75,0.5 0.75,-10.75 0.75,3.5 0.5,0.5 0.75,3.25 0.75,-5.25 0.75,-1 0.5,4.75 0.75,-4.5 h 0.5 l 0.75,-1.75 0.75,0.5 0.5,-1.5 0.75,-2.5 0.5,2.25 0.75,2.75 0.5,-0.25 0.75,-9.25 0.5,-1.25 0.5,12 0.75,-6 0.5,-0.75 0.75,3.75 0.5,5.5 0.5,-1.25 0.75,-4"
       style="fill:none;stroke:#ff0000;stroke-width:1.5;stroke-linecap:butt;stroke-linejoin:miter;stroke-miterlimit:10;stroke-dasharray:none;stroke-opacity:1"
       id="path250" /><path
       d="M 99.75,284.5 160,239 l 35,5 25,-25.75 19.5,43.75 15.75,-32.25 13.25,-19.25 11.75,4.75 10.25,-0.25 9,36 8.25,-42.25 7.5,-15.75 7,78.25 6.5,-57.75 6,-32.5 5.5,2 5.25,-0.5 5,7.25 4.75,49.75 4.5,-55 4,84.25 4.25,-75.5 3.75,-4.25 3.75,7 3.5,-6.5 3.5,23.75 3.25,-45 3,24 3,-23.5 3,49.5 3,-11.25 2.75,-43 2.5,2.75 2.75,31.25 2.5,-0.5 2.25,-29.75 2.5,52 2.25,-44.25 2.25,16.5 2.25,40.25 2.25,-61 2,23.25 2,-17.75 2,34.25 2,-14.25 1.75,-7.25 2,-15.5 1.75,51.5 1.75,-19 1.75,-43.75 1.75,16.75 1.75,44.75 1.75,-45.75 1.5,6.75 1.5,8.75 1.75,-9.75 1.5,2.5 1.5,9.75 1.5,1.75 1.5,-13.5 1.25,-3 1.5,-9.75 1.5,32.75 1.25,-12 1.25,10 1.5,-23.75 1.25,47.5 1.25,-33.25 1.25,-13 1.25,6 1.25,2.5 1.25,131.5 1.25,-116.5 1,-16 1.25,23.75 1.25,-29.75 1,47.75 1.25,-41.25 1,-13.25 1,21.5 1.25,-3.5 1,10 1,11.25 1,-10.75 1,27.75 1.25,-37.25 1,49.75 1,-19 0.75,-37.5 1,30.5 1,-4.5 1,-7.5 1,-4.25 0.75,12.5 1,-2.25 1,-11.5 0.75,-0.75 1,-7.25 0.75,23.75 1,-5.25 0.75,-7 1,9 0.75,1.25 0.75,44.5 1,-46.25 0.75,30.25 0.75,-43.75 1,10.25 0.75,13.25 0.75,-5.25 0.75,-21.25 0.75,30.75 0.75,11.75 0.75,-6.5 0.75,-18.5 0.75,29.5 0.75,-32.25 0.75,22.5 0.75,-12.5 0.75,-7.25 h 0.75 l 0.75,47 0.75,-34.5 0.5,-7.75 0.75,-12.25 0.75,27.75 0.75,16.25 0.5,-53 0.75,31.75 0.75,-5 0.75,6.75 0.5,-13 0.75,12 0.5,-15.25 0.75,-1.75 0.75,0.25 0.5,13 0.75,-30.5 0.5,9.25 0.75,22.75 0.5,-16.25 0.75,7.75 0.5,12.75 0.5,10.5 0.75,17.25 0.5,-37.25 0.75,3.25 0.5,-23.25 0.5,22.75 0.75,58"
       style="fill:none;stroke:#0000ff;stroke-width:1.5;stroke-linecap:butt;stroke-linejoin:miter;stroke-miterlimit:10;stroke-dasharray:none;stroke-opacity:1"
       id="path252" /><path
       d="M 413.75,305.5 H 482 v 40.75 h -68.25 z"
       style="fill:#ffffff;fill-opacity:1;fill-rule:evenodd;stroke:none;stroke-width:0.1"
       id="path254" /><path
       d="M 413.75,305.5 H 482 v 40.75 h -68.25 z"
       style="fill:none;stroke:#ffffff;stroke-width:0.25;stroke-linecap:butt;stroke-linejoin:miter;stroke-miterlimit:10;stroke-dasharray:none;stroke-opacity:1"
       id="path256" /><g
       id="g258"><text
         transform="matrix(1,0,0,-1,430.182,331.895)"
         style="font-variant:normal;font-weight:normal;font-size:13.5322px;font-family:Helvetica;-inkscape-font-specification:Helvetica;writing-mode:lr-tb;fill:#000000;fill-opacity:1;fill-rule:nonzero;stroke:none"
         id="text262"><tspan
           x="0 8.2681742 12.774397 20.2983 23.302448"
           y="0"
           sodipodi:role="line"
           id="tspan260">Train</tspan></text></g><path
       d="m 416.5,336 h 11.75"
       style="fill:none;stroke:#ff0000;stroke-width:1.5;stroke-linecap:butt;stroke-linejoin:miter;stroke-miterlimit:10;stroke-dasharray:none;stroke-opacity:1"
       id="path264" /><g
       id="g266"><text
         transform="matrix(1,0,0,-1,430.182,311.24)"
         style="font-variant:normal;font-weight:normal;font-size:13.5322px;font-family:Helvetica;-inkscape-font-specification:Helvetica;writing-mode:lr-tb;fill:#000000;fill-opacity:1;fill-rule:nonzero;stroke:none"
         id="text270"><tspan
           x="0 9.0259771 16.549881 19.554029 22.558178 30.082081 37.605984 41.367935 44.372086 51.895988"
           y="0"
           sodipodi:role="line"
           id="tspan268">Validation</tspan></text></g><path
       d="m 416.5,315.75 h 11.75"
       style="fill:none;stroke:#0000ff;stroke-width:1.5;stroke-linecap:butt;stroke-linejoin:miter;stroke-miterlimit:10;stroke-dasharray:none;stroke-opacity:1"
       id="path272" /></g></svg>
