<?xml version="1.0" encoding="UTF-8" standalone="no"?>
<svg
   xmlns:dc="http://purl.org/dc/elements/1.1/"
   xmlns:cc="http://creativecommons.org/ns#"
   xmlns:rdf="http://www.w3.org/1999/02/22-rdf-syntax-ns#"
   xmlns:svg="http://www.w3.org/2000/svg"
   xmlns="http://www.w3.org/2000/svg"
   xmlns:sodipodi="http://sodipodi.sourceforge.net/DTD/sodipodi-0.dtd"
   xmlns:inkscape="http://www.inkscape.org/namespaces/inkscape"
   version="1.1"
   id="svg2"
   xml:space="preserve"
   width="756"
   height="542.66669"
   viewBox="0 0 756 542.66669"
   sodipodi:docname="MyModel_ROCCurve_Combined_ttZ.svg"
   inkscape:version="1.0.2 (e86c870879, 2021-01-15, custom)"><metadata
     id="metadata8"><rdf:RDF><cc:Work
         rdf:about=""><dc:format>image/svg+xml</dc:format><dc:type
           rdf:resource="http://purl.org/dc/dcmitype/StillImage" /></cc:Work></rdf:RDF></metadata><defs
     id="defs6" /><sodipodi:namedview
     pagecolor="#ffffff"
     bordercolor="#666666"
     borderopacity="1"
     objecttolerance="10"
     gridtolerance="10"
     guidetolerance="10"
     inkscape:pageopacity="0"
     inkscape:pageshadow="2"
     inkscape:window-width="1920"
     inkscape:window-height="1017"
     id="namedview4"
     inkscape:document-rotation="0"
     showgrid="false"
     inkscape:zoom="1.0283703"
     inkscape:cx="172.90047"
     inkscape:cy="329.02243"
     inkscape:window-x="1912"
     inkscape:window-y="-8"
     inkscape:window-maximized="1"
     inkscape:current-layer="g10" /><g
     id="g10"
     inkscape:groupmode="layer"
     inkscape:label="ink_ext_XXXXXX"
     transform="matrix(1.3333333,0,0,-1.3333333,0,542.66667)"><path
       d="M 81.135663,-49.593034 H 648.13566 V 357.90697 H 81.135663 Z"
       style="fill:#ffffff;fill-opacity:1;fill-rule:evenodd;stroke:none;stroke-width:0.1"
       id="path14" /><path
       d="M 0,0 H 567 V 407.5 H 0 Z"
       style="fill:none;stroke:#ffffff;stroke-width:0.25;stroke-linecap:butt;stroke-linejoin:miter;stroke-miterlimit:10;stroke-dasharray:none;stroke-opacity:1"
       id="path16" /><path
       d="M 90.75,65.25 H 538.5 v 313.5 H 90.75 Z"
       style="fill:none;stroke:#000000;stroke-width:0.75;stroke-linecap:butt;stroke-linejoin:miter;stroke-miterlimit:10;stroke-dasharray:none;stroke-opacity:1"
       id="path18" /><path
       d="M 90.75,65.25 H 538.5 v 313.5 H 90.75 Z"
       style="fill:none;stroke:#000000;stroke-width:0.75;stroke-linecap:butt;stroke-linejoin:miter;stroke-miterlimit:10;stroke-dasharray:none;stroke-opacity:1"
       id="path20" /><path
       d="M 90.75,65.25 H 538.5 v 313.5 H 90.75 Z"
       style="fill:none;stroke:#000000;stroke-width:0.75;stroke-linecap:butt;stroke-linejoin:miter;stroke-miterlimit:10;stroke-dasharray:none;stroke-opacity:1"
       id="path22" /><path
       d="M 90.75,65.25 H 538.5 v 313.5 H 90.75 Z"
       style="fill:none;stroke:#000000;stroke-width:0.75;stroke-linecap:butt;stroke-linejoin:miter;stroke-miterlimit:10;stroke-dasharray:none;stroke-opacity:1"
       id="path24" /><path
       d="M 90.75,65.25 H 538.5"
       style="fill:none;stroke:#000000;stroke-width:0.75;stroke-linecap:butt;stroke-linejoin:miter;stroke-miterlimit:10;stroke-dasharray:none;stroke-opacity:1"
       id="path26" /><path
       d="m 93.5,74.75 v -9.5"
       style="fill:none;stroke:#000000;stroke-width:0.75;stroke-linecap:butt;stroke-linejoin:miter;stroke-miterlimit:10;stroke-dasharray:none;stroke-opacity:1"
       id="path28" /><path
       d="M 115.75,70 V 65.25"
       style="fill:none;stroke:#000000;stroke-width:0.75;stroke-linecap:butt;stroke-linejoin:miter;stroke-miterlimit:10;stroke-dasharray:none;stroke-opacity:1"
       id="path30" /><path
       d="M 137.75,70 V 65.25"
       style="fill:none;stroke:#000000;stroke-width:0.75;stroke-linecap:butt;stroke-linejoin:miter;stroke-miterlimit:10;stroke-dasharray:none;stroke-opacity:1"
       id="path32" /><path
       d="M 160,70 V 65.25"
       style="fill:none;stroke:#000000;stroke-width:0.75;stroke-linecap:butt;stroke-linejoin:miter;stroke-miterlimit:10;stroke-dasharray:none;stroke-opacity:1"
       id="path34" /><path
       d="m 182,74.75 v -9.5"
       style="fill:none;stroke:#000000;stroke-width:0.75;stroke-linecap:butt;stroke-linejoin:miter;stroke-miterlimit:10;stroke-dasharray:none;stroke-opacity:1"
       id="path36" /><path
       d="M 204,70 V 65.25"
       style="fill:none;stroke:#000000;stroke-width:0.75;stroke-linecap:butt;stroke-linejoin:miter;stroke-miterlimit:10;stroke-dasharray:none;stroke-opacity:1"
       id="path38" /><path
       d="M 226.25,70 V 65.25"
       style="fill:none;stroke:#000000;stroke-width:0.75;stroke-linecap:butt;stroke-linejoin:miter;stroke-miterlimit:10;stroke-dasharray:none;stroke-opacity:1"
       id="path40" /><path
       d="M 248.25,70 V 65.25"
       style="fill:none;stroke:#000000;stroke-width:0.75;stroke-linecap:butt;stroke-linejoin:miter;stroke-miterlimit:10;stroke-dasharray:none;stroke-opacity:1"
       id="path42" /><path
       d="m 270.5,74.75 v -9.5"
       style="fill:none;stroke:#000000;stroke-width:0.75;stroke-linecap:butt;stroke-linejoin:miter;stroke-miterlimit:10;stroke-dasharray:none;stroke-opacity:1"
       id="path44" /><path
       d="M 292.5,70 V 65.25"
       style="fill:none;stroke:#000000;stroke-width:0.75;stroke-linecap:butt;stroke-linejoin:miter;stroke-miterlimit:10;stroke-dasharray:none;stroke-opacity:1"
       id="path46" /><path
       d="M 314.75,70 V 65.25"
       style="fill:none;stroke:#000000;stroke-width:0.75;stroke-linecap:butt;stroke-linejoin:miter;stroke-miterlimit:10;stroke-dasharray:none;stroke-opacity:1"
       id="path48" /><path
       d="M 336.75,70 V 65.25"
       style="fill:none;stroke:#000000;stroke-width:0.75;stroke-linecap:butt;stroke-linejoin:miter;stroke-miterlimit:10;stroke-dasharray:none;stroke-opacity:1"
       id="path50" /><path
       d="m 359,74.75 v -9.5"
       style="fill:none;stroke:#000000;stroke-width:0.75;stroke-linecap:butt;stroke-linejoin:miter;stroke-miterlimit:10;stroke-dasharray:none;stroke-opacity:1"
       id="path52" /><path
       d="M 381,70 V 65.25"
       style="fill:none;stroke:#000000;stroke-width:0.75;stroke-linecap:butt;stroke-linejoin:miter;stroke-miterlimit:10;stroke-dasharray:none;stroke-opacity:1"
       id="path54" /><path
       d="M 403,70 V 65.25"
       style="fill:none;stroke:#000000;stroke-width:0.75;stroke-linecap:butt;stroke-linejoin:miter;stroke-miterlimit:10;stroke-dasharray:none;stroke-opacity:1"
       id="path56" /><path
       d="M 425.25,70 V 65.25"
       style="fill:none;stroke:#000000;stroke-width:0.75;stroke-linecap:butt;stroke-linejoin:miter;stroke-miterlimit:10;stroke-dasharray:none;stroke-opacity:1"
       id="path58" /><path
       d="m 447.25,74.75 v -9.5"
       style="fill:none;stroke:#000000;stroke-width:0.75;stroke-linecap:butt;stroke-linejoin:miter;stroke-miterlimit:10;stroke-dasharray:none;stroke-opacity:1"
       id="path60" /><path
       d="M 469.5,70 V 65.25"
       style="fill:none;stroke:#000000;stroke-width:0.75;stroke-linecap:butt;stroke-linejoin:miter;stroke-miterlimit:10;stroke-dasharray:none;stroke-opacity:1"
       id="path62" /><path
       d="M 491.5,70 V 65.25"
       style="fill:none;stroke:#000000;stroke-width:0.75;stroke-linecap:butt;stroke-linejoin:miter;stroke-miterlimit:10;stroke-dasharray:none;stroke-opacity:1"
       id="path64" /><path
       d="M 513.75,70 V 65.25"
       style="fill:none;stroke:#000000;stroke-width:0.75;stroke-linecap:butt;stroke-linejoin:miter;stroke-miterlimit:10;stroke-dasharray:none;stroke-opacity:1"
       id="path66" /><path
       d="m 535.75,74.75 v -9.5"
       style="fill:none;stroke:#000000;stroke-width:0.75;stroke-linecap:butt;stroke-linejoin:miter;stroke-miterlimit:10;stroke-dasharray:none;stroke-opacity:1"
       id="path68" /><path
       d="m 93.5,74.75 v -9.5"
       style="fill:none;stroke:#000000;stroke-width:0.75;stroke-linecap:butt;stroke-linejoin:miter;stroke-miterlimit:10;stroke-dasharray:none;stroke-opacity:1"
       id="path70" /><path
       d="m 535.75,74.75 v -9.5"
       style="fill:none;stroke:#000000;stroke-width:0.75;stroke-linecap:butt;stroke-linejoin:miter;stroke-miterlimit:10;stroke-dasharray:none;stroke-opacity:1"
       id="path72" /><g
       id="g74"><text
         transform="matrix(1,0,0,-1,88.3156,47.0066)"
         style="font-variant:normal;font-weight:normal;font-size:19.23px;font-family:Helvetica;-inkscape-font-specification:Helvetica;writing-mode:lr-tb;fill:#000000;fill-opacity:1;fill-rule:nonzero;stroke:none"
         id="text80"><tspan
           x="0 79.76873 90.460609 95.806549 168.08443 178.77631 184.12225 256.39935 267.09125 272.43716 345.42715 356.11902 361.46497 443.71475"
           y="0"
           sodipodi:role="line"
           id="tspan76">00.20.40.60.81</tspan><tspan
           x="292.724 304.47354 310.87711 321.569 332.26089 337.60681 350.43323 361.12512 370.74011 375.00916 380.3551 384.62418 394.23917 404.93106 410.27698 424.16104 434.85294 440.19888"
           y="30.625401"
           sodipodi:role="line"
           id="tspan78">True Positive Rate</tspan></text></g><path
       d="M 90.75,378.75 H 538.5"
       style="fill:none;stroke:#000000;stroke-width:0.75;stroke-linecap:butt;stroke-linejoin:miter;stroke-miterlimit:10;stroke-dasharray:none;stroke-opacity:1"
       id="path82" /><path
       d="m 93.5,369.25 v 9.5"
       style="fill:none;stroke:#000000;stroke-width:0.75;stroke-linecap:butt;stroke-linejoin:miter;stroke-miterlimit:10;stroke-dasharray:none;stroke-opacity:1"
       id="path84" /><path
       d="m 115.75,374 v 4.75"
       style="fill:none;stroke:#000000;stroke-width:0.75;stroke-linecap:butt;stroke-linejoin:miter;stroke-miterlimit:10;stroke-dasharray:none;stroke-opacity:1"
       id="path86" /><path
       d="m 137.75,374 v 4.75"
       style="fill:none;stroke:#000000;stroke-width:0.75;stroke-linecap:butt;stroke-linejoin:miter;stroke-miterlimit:10;stroke-dasharray:none;stroke-opacity:1"
       id="path88" /><path
       d="m 160,374 v 4.75"
       style="fill:none;stroke:#000000;stroke-width:0.75;stroke-linecap:butt;stroke-linejoin:miter;stroke-miterlimit:10;stroke-dasharray:none;stroke-opacity:1"
       id="path90" /><path
       d="m 182,369.25 v 9.5"
       style="fill:none;stroke:#000000;stroke-width:0.75;stroke-linecap:butt;stroke-linejoin:miter;stroke-miterlimit:10;stroke-dasharray:none;stroke-opacity:1"
       id="path92" /><path
       d="m 204,374 v 4.75"
       style="fill:none;stroke:#000000;stroke-width:0.75;stroke-linecap:butt;stroke-linejoin:miter;stroke-miterlimit:10;stroke-dasharray:none;stroke-opacity:1"
       id="path94" /><path
       d="m 226.25,374 v 4.75"
       style="fill:none;stroke:#000000;stroke-width:0.75;stroke-linecap:butt;stroke-linejoin:miter;stroke-miterlimit:10;stroke-dasharray:none;stroke-opacity:1"
       id="path96" /><path
       d="m 248.25,374 v 4.75"
       style="fill:none;stroke:#000000;stroke-width:0.75;stroke-linecap:butt;stroke-linejoin:miter;stroke-miterlimit:10;stroke-dasharray:none;stroke-opacity:1"
       id="path98" /><path
       d="m 270.5,369.25 v 9.5"
       style="fill:none;stroke:#000000;stroke-width:0.75;stroke-linecap:butt;stroke-linejoin:miter;stroke-miterlimit:10;stroke-dasharray:none;stroke-opacity:1"
       id="path100" /><path
       d="m 292.5,374 v 4.75"
       style="fill:none;stroke:#000000;stroke-width:0.75;stroke-linecap:butt;stroke-linejoin:miter;stroke-miterlimit:10;stroke-dasharray:none;stroke-opacity:1"
       id="path102" /><path
       d="m 314.75,374 v 4.75"
       style="fill:none;stroke:#000000;stroke-width:0.75;stroke-linecap:butt;stroke-linejoin:miter;stroke-miterlimit:10;stroke-dasharray:none;stroke-opacity:1"
       id="path104" /><path
       d="m 336.75,374 v 4.75"
       style="fill:none;stroke:#000000;stroke-width:0.75;stroke-linecap:butt;stroke-linejoin:miter;stroke-miterlimit:10;stroke-dasharray:none;stroke-opacity:1"
       id="path106" /><path
       d="m 359,369.25 v 9.5"
       style="fill:none;stroke:#000000;stroke-width:0.75;stroke-linecap:butt;stroke-linejoin:miter;stroke-miterlimit:10;stroke-dasharray:none;stroke-opacity:1"
       id="path108" /><path
       d="m 381,374 v 4.75"
       style="fill:none;stroke:#000000;stroke-width:0.75;stroke-linecap:butt;stroke-linejoin:miter;stroke-miterlimit:10;stroke-dasharray:none;stroke-opacity:1"
       id="path110" /><path
       d="m 403,374 v 4.75"
       style="fill:none;stroke:#000000;stroke-width:0.75;stroke-linecap:butt;stroke-linejoin:miter;stroke-miterlimit:10;stroke-dasharray:none;stroke-opacity:1"
       id="path112" /><path
       d="m 425.25,374 v 4.75"
       style="fill:none;stroke:#000000;stroke-width:0.75;stroke-linecap:butt;stroke-linejoin:miter;stroke-miterlimit:10;stroke-dasharray:none;stroke-opacity:1"
       id="path114" /><path
       d="m 447.25,369.25 v 9.5"
       style="fill:none;stroke:#000000;stroke-width:0.75;stroke-linecap:butt;stroke-linejoin:miter;stroke-miterlimit:10;stroke-dasharray:none;stroke-opacity:1"
       id="path116" /><path
       d="m 469.5,374 v 4.75"
       style="fill:none;stroke:#000000;stroke-width:0.75;stroke-linecap:butt;stroke-linejoin:miter;stroke-miterlimit:10;stroke-dasharray:none;stroke-opacity:1"
       id="path118" /><path
       d="m 491.5,374 v 4.75"
       style="fill:none;stroke:#000000;stroke-width:0.75;stroke-linecap:butt;stroke-linejoin:miter;stroke-miterlimit:10;stroke-dasharray:none;stroke-opacity:1"
       id="path120" /><path
       d="m 513.75,374 v 4.75"
       style="fill:none;stroke:#000000;stroke-width:0.75;stroke-linecap:butt;stroke-linejoin:miter;stroke-miterlimit:10;stroke-dasharray:none;stroke-opacity:1"
       id="path122" /><path
       d="m 535.75,369.25 v 9.5"
       style="fill:none;stroke:#000000;stroke-width:0.75;stroke-linecap:butt;stroke-linejoin:miter;stroke-miterlimit:10;stroke-dasharray:none;stroke-opacity:1"
       id="path124" /><path
       d="m 93.5,369.25 v 9.5"
       style="fill:none;stroke:#000000;stroke-width:0.75;stroke-linecap:butt;stroke-linejoin:miter;stroke-miterlimit:10;stroke-dasharray:none;stroke-opacity:1"
       id="path126" /><path
       d="m 535.75,369.25 v 9.5"
       style="fill:none;stroke:#000000;stroke-width:0.75;stroke-linecap:butt;stroke-linejoin:miter;stroke-miterlimit:10;stroke-dasharray:none;stroke-opacity:1"
       id="path128" /><path
       d="m 90.75,65.25 v 313.5"
       style="fill:none;stroke:#000000;stroke-width:0.75;stroke-linecap:butt;stroke-linejoin:miter;stroke-miterlimit:10;stroke-dasharray:none;stroke-opacity:1"
       id="path130" /><path
       d="m 103.75,65.25 h -13"
       style="fill:none;stroke:#000000;stroke-width:0.75;stroke-linecap:butt;stroke-linejoin:miter;stroke-miterlimit:10;stroke-dasharray:none;stroke-opacity:1"
       id="path132" /><path
       d="m 97.25,74.5 h -6.5"
       style="fill:none;stroke:#000000;stroke-width:0.75;stroke-linecap:butt;stroke-linejoin:miter;stroke-miterlimit:10;stroke-dasharray:none;stroke-opacity:1"
       id="path134" /><path
       d="m 97.25,83.75 h -6.5"
       style="fill:none;stroke:#000000;stroke-width:0.75;stroke-linecap:butt;stroke-linejoin:miter;stroke-miterlimit:10;stroke-dasharray:none;stroke-opacity:1"
       id="path136" /><path
       d="m 97.25,92.75 h -6.5"
       style="fill:none;stroke:#000000;stroke-width:0.75;stroke-linecap:butt;stroke-linejoin:miter;stroke-miterlimit:10;stroke-dasharray:none;stroke-opacity:1"
       id="path138" /><path
       d="m 103.75,102 h -13"
       style="fill:none;stroke:#000000;stroke-width:0.75;stroke-linecap:butt;stroke-linejoin:miter;stroke-miterlimit:10;stroke-dasharray:none;stroke-opacity:1"
       id="path140" /><path
       d="m 97.25,111.25 h -6.5"
       style="fill:none;stroke:#000000;stroke-width:0.75;stroke-linecap:butt;stroke-linejoin:miter;stroke-miterlimit:10;stroke-dasharray:none;stroke-opacity:1"
       id="path142" /><path
       d="m 97.25,120.5 h -6.5"
       style="fill:none;stroke:#000000;stroke-width:0.75;stroke-linecap:butt;stroke-linejoin:miter;stroke-miterlimit:10;stroke-dasharray:none;stroke-opacity:1"
       id="path144" /><path
       d="m 97.25,129.75 h -6.5"
       style="fill:none;stroke:#000000;stroke-width:0.75;stroke-linecap:butt;stroke-linejoin:miter;stroke-miterlimit:10;stroke-dasharray:none;stroke-opacity:1"
       id="path146" /><path
       d="m 103.75,139 h -13"
       style="fill:none;stroke:#000000;stroke-width:0.75;stroke-linecap:butt;stroke-linejoin:miter;stroke-miterlimit:10;stroke-dasharray:none;stroke-opacity:1"
       id="path148" /><path
       d="m 97.25,148.25 h -6.5"
       style="fill:none;stroke:#000000;stroke-width:0.75;stroke-linecap:butt;stroke-linejoin:miter;stroke-miterlimit:10;stroke-dasharray:none;stroke-opacity:1"
       id="path150" /><path
       d="m 97.25,157.5 h -6.5"
       style="fill:none;stroke:#000000;stroke-width:0.75;stroke-linecap:butt;stroke-linejoin:miter;stroke-miterlimit:10;stroke-dasharray:none;stroke-opacity:1"
       id="path152" /><path
       d="m 97.25,166.75 h -6.5"
       style="fill:none;stroke:#000000;stroke-width:0.75;stroke-linecap:butt;stroke-linejoin:miter;stroke-miterlimit:10;stroke-dasharray:none;stroke-opacity:1"
       id="path154" /><path
       d="m 103.75,176 h -13"
       style="fill:none;stroke:#000000;stroke-width:0.75;stroke-linecap:butt;stroke-linejoin:miter;stroke-miterlimit:10;stroke-dasharray:none;stroke-opacity:1"
       id="path156" /><path
       d="m 97.25,185 h -6.5"
       style="fill:none;stroke:#000000;stroke-width:0.75;stroke-linecap:butt;stroke-linejoin:miter;stroke-miterlimit:10;stroke-dasharray:none;stroke-opacity:1"
       id="path158" /><path
       d="m 97.25,194.25 h -6.5"
       style="fill:none;stroke:#000000;stroke-width:0.75;stroke-linecap:butt;stroke-linejoin:miter;stroke-miterlimit:10;stroke-dasharray:none;stroke-opacity:1"
       id="path160" /><path
       d="m 97.25,203.5 h -6.5"
       style="fill:none;stroke:#000000;stroke-width:0.75;stroke-linecap:butt;stroke-linejoin:miter;stroke-miterlimit:10;stroke-dasharray:none;stroke-opacity:1"
       id="path162" /><path
       d="m 103.75,212.75 h -13"
       style="fill:none;stroke:#000000;stroke-width:0.75;stroke-linecap:butt;stroke-linejoin:miter;stroke-miterlimit:10;stroke-dasharray:none;stroke-opacity:1"
       id="path164" /><path
       d="m 97.25,222 h -6.5"
       style="fill:none;stroke:#000000;stroke-width:0.75;stroke-linecap:butt;stroke-linejoin:miter;stroke-miterlimit:10;stroke-dasharray:none;stroke-opacity:1"
       id="path166" /><path
       d="m 97.25,231.25 h -6.5"
       style="fill:none;stroke:#000000;stroke-width:0.75;stroke-linecap:butt;stroke-linejoin:miter;stroke-miterlimit:10;stroke-dasharray:none;stroke-opacity:1"
       id="path168" /><path
       d="m 97.25,240.5 h -6.5"
       style="fill:none;stroke:#000000;stroke-width:0.75;stroke-linecap:butt;stroke-linejoin:miter;stroke-miterlimit:10;stroke-dasharray:none;stroke-opacity:1"
       id="path170" /><path
       d="m 103.75,249.75 h -13"
       style="fill:none;stroke:#000000;stroke-width:0.75;stroke-linecap:butt;stroke-linejoin:miter;stroke-miterlimit:10;stroke-dasharray:none;stroke-opacity:1"
       id="path172" /><path
       d="m 97.25,259 h -6.5"
       style="fill:none;stroke:#000000;stroke-width:0.75;stroke-linecap:butt;stroke-linejoin:miter;stroke-miterlimit:10;stroke-dasharray:none;stroke-opacity:1"
       id="path174" /><path
       d="m 97.25,268.25 h -6.5"
       style="fill:none;stroke:#000000;stroke-width:0.75;stroke-linecap:butt;stroke-linejoin:miter;stroke-miterlimit:10;stroke-dasharray:none;stroke-opacity:1"
       id="path176" /><path
       d="m 97.25,277.5 h -6.5"
       style="fill:none;stroke:#000000;stroke-width:0.75;stroke-linecap:butt;stroke-linejoin:miter;stroke-miterlimit:10;stroke-dasharray:none;stroke-opacity:1"
       id="path178" /><path
       d="m 103.75,286.5 h -13"
       style="fill:none;stroke:#000000;stroke-width:0.75;stroke-linecap:butt;stroke-linejoin:miter;stroke-miterlimit:10;stroke-dasharray:none;stroke-opacity:1"
       id="path180" /><path
       d="m 97.25,295.75 h -6.5"
       style="fill:none;stroke:#000000;stroke-width:0.75;stroke-linecap:butt;stroke-linejoin:miter;stroke-miterlimit:10;stroke-dasharray:none;stroke-opacity:1"
       id="path182" /><path
       d="m 97.25,305 h -6.5"
       style="fill:none;stroke:#000000;stroke-width:0.75;stroke-linecap:butt;stroke-linejoin:miter;stroke-miterlimit:10;stroke-dasharray:none;stroke-opacity:1"
       id="path184" /><path
       d="m 97.25,314.25 h -6.5"
       style="fill:none;stroke:#000000;stroke-width:0.75;stroke-linecap:butt;stroke-linejoin:miter;stroke-miterlimit:10;stroke-dasharray:none;stroke-opacity:1"
       id="path186" /><path
       d="m 103.75,323.5 h -13"
       style="fill:none;stroke:#000000;stroke-width:0.75;stroke-linecap:butt;stroke-linejoin:miter;stroke-miterlimit:10;stroke-dasharray:none;stroke-opacity:1"
       id="path188" /><path
       d="m 97.25,332.75 h -6.5"
       style="fill:none;stroke:#000000;stroke-width:0.75;stroke-linecap:butt;stroke-linejoin:miter;stroke-miterlimit:10;stroke-dasharray:none;stroke-opacity:1"
       id="path190" /><path
       d="m 97.25,342 h -6.5"
       style="fill:none;stroke:#000000;stroke-width:0.75;stroke-linecap:butt;stroke-linejoin:miter;stroke-miterlimit:10;stroke-dasharray:none;stroke-opacity:1"
       id="path192" /><path
       d="m 97.25,351.25 h -6.5"
       style="fill:none;stroke:#000000;stroke-width:0.75;stroke-linecap:butt;stroke-linejoin:miter;stroke-miterlimit:10;stroke-dasharray:none;stroke-opacity:1"
       id="path194" /><path
       d="m 103.75,360.5 h -13"
       style="fill:none;stroke:#000000;stroke-width:0.75;stroke-linecap:butt;stroke-linejoin:miter;stroke-miterlimit:10;stroke-dasharray:none;stroke-opacity:1"
       id="path196" /><path
       d="m 103.75,360.5 h -13"
       style="fill:none;stroke:#000000;stroke-width:0.75;stroke-linecap:butt;stroke-linejoin:miter;stroke-miterlimit:10;stroke-dasharray:none;stroke-opacity:1"
       id="path198" /><path
       d="m 97.25,369.75 h -6.5"
       style="fill:none;stroke:#000000;stroke-width:0.75;stroke-linecap:butt;stroke-linejoin:miter;stroke-miterlimit:10;stroke-dasharray:none;stroke-opacity:1"
       id="path200" /><g
       id="g202"><text
         transform="matrix(1,0,0,-1,77.6324,58.4023)"
         style="font-variant:normal;font-weight:normal;font-size:19.23px;font-family:Helvetica;-inkscape-font-specification:Helvetica;writing-mode:lr-tb;fill:#000000;fill-opacity:1;fill-rule:nonzero;stroke:none"
         id="text222"><tspan
           x="0"
           y="0"
           id="tspan204">0</tspan><tspan
           x="-16.3813 -5.6894202 -0.34347999"
           y="-37.0355"
           sodipodi:role="line"
           id="tspan206">0.2</tspan><tspan
           x="-16.3813 -5.6894202 -0.34347999"
           y="-74.070999"
           sodipodi:role="line"
           id="tspan208">0.4</tspan><tspan
           x="-16.3813 -5.6894202 -0.34347999"
           y="-110.3944"
           sodipodi:role="line"
           id="tspan210">0.6</tspan><tspan
           x="-16.3813 -5.6894202 -0.34347999"
           y="-147.4299"
           sodipodi:role="line"
           id="tspan212">0.8</tspan><tspan
           x="2.8487999"
           y="-183.7533"
           id="tspan214">1</tspan><tspan
           x="-16.3813 -5.6894202 -0.34347999"
           y="-220.78729"
           sodipodi:role="line"
           id="tspan216">1.2</tspan><tspan
           x="-16.3813 -5.6894202 -0.34347999"
           y="-257.8248"
           sodipodi:role="line"
           id="tspan218">1.4</tspan><tspan
           x="-16.3813 -5.6894202 -0.34347999"
           y="-295.57251"
           sodipodi:role="line"
           id="tspan220">1.6</tspan></text><text
         transform="matrix(0,1,1,0,38.4602,213.667)"
         style="font-variant:normal;font-weight:normal;font-size:19.23px;font-family:Helvetica;-inkscape-font-specification:Helvetica;writing-mode:lr-tb;fill:#000000;fill-opacity:1;fill-rule:nonzero;stroke:none"
         id="text226"><tspan
           x="0 11.74953 22.44141 26.71047 36.32547 47.017349 52.363289 65.189697 75.881577 85.496582 89.76564 95.11158 99.380638 108.99564 119.68752 125.03346 138.91753 149.60941 154.95534"
           y="0"
           sodipodi:role="line"
           id="tspan224">False Positive Rate</tspan></text></g><path
       d="m 538.5,65.25 v 313.5"
       style="fill:none;stroke:#000000;stroke-width:0.75;stroke-linecap:butt;stroke-linejoin:miter;stroke-miterlimit:10;stroke-dasharray:none;stroke-opacity:1"
       id="path228" /><path
       d="m 525.5,65.25 h 13"
       style="fill:none;stroke:#000000;stroke-width:0.75;stroke-linecap:butt;stroke-linejoin:miter;stroke-miterlimit:10;stroke-dasharray:none;stroke-opacity:1"
       id="path230" /><path
       d="m 532,74.5 h 6.5"
       style="fill:none;stroke:#000000;stroke-width:0.75;stroke-linecap:butt;stroke-linejoin:miter;stroke-miterlimit:10;stroke-dasharray:none;stroke-opacity:1"
       id="path232" /><path
       d="m 532,83.75 h 6.5"
       style="fill:none;stroke:#000000;stroke-width:0.75;stroke-linecap:butt;stroke-linejoin:miter;stroke-miterlimit:10;stroke-dasharray:none;stroke-opacity:1"
       id="path234" /><path
       d="m 532,92.75 h 6.5"
       style="fill:none;stroke:#000000;stroke-width:0.75;stroke-linecap:butt;stroke-linejoin:miter;stroke-miterlimit:10;stroke-dasharray:none;stroke-opacity:1"
       id="path236" /><path
       d="m 525.5,102 h 13"
       style="fill:none;stroke:#000000;stroke-width:0.75;stroke-linecap:butt;stroke-linejoin:miter;stroke-miterlimit:10;stroke-dasharray:none;stroke-opacity:1"
       id="path238" /><path
       d="m 532,111.25 h 6.5"
       style="fill:none;stroke:#000000;stroke-width:0.75;stroke-linecap:butt;stroke-linejoin:miter;stroke-miterlimit:10;stroke-dasharray:none;stroke-opacity:1"
       id="path240" /><path
       d="m 532,120.5 h 6.5"
       style="fill:none;stroke:#000000;stroke-width:0.75;stroke-linecap:butt;stroke-linejoin:miter;stroke-miterlimit:10;stroke-dasharray:none;stroke-opacity:1"
       id="path242" /><path
       d="m 532,129.75 h 6.5"
       style="fill:none;stroke:#000000;stroke-width:0.75;stroke-linecap:butt;stroke-linejoin:miter;stroke-miterlimit:10;stroke-dasharray:none;stroke-opacity:1"
       id="path244" /><path
       d="m 525.5,139 h 13"
       style="fill:none;stroke:#000000;stroke-width:0.75;stroke-linecap:butt;stroke-linejoin:miter;stroke-miterlimit:10;stroke-dasharray:none;stroke-opacity:1"
       id="path246" /><path
       d="m 532,148.25 h 6.5"
       style="fill:none;stroke:#000000;stroke-width:0.75;stroke-linecap:butt;stroke-linejoin:miter;stroke-miterlimit:10;stroke-dasharray:none;stroke-opacity:1"
       id="path248" /><path
       d="m 532,157.5 h 6.5"
       style="fill:none;stroke:#000000;stroke-width:0.75;stroke-linecap:butt;stroke-linejoin:miter;stroke-miterlimit:10;stroke-dasharray:none;stroke-opacity:1"
       id="path250" /><path
       d="m 532,166.75 h 6.5"
       style="fill:none;stroke:#000000;stroke-width:0.75;stroke-linecap:butt;stroke-linejoin:miter;stroke-miterlimit:10;stroke-dasharray:none;stroke-opacity:1"
       id="path252" /><path
       d="m 525.5,176 h 13"
       style="fill:none;stroke:#000000;stroke-width:0.75;stroke-linecap:butt;stroke-linejoin:miter;stroke-miterlimit:10;stroke-dasharray:none;stroke-opacity:1"
       id="path254" /><path
       d="m 532,185 h 6.5"
       style="fill:none;stroke:#000000;stroke-width:0.75;stroke-linecap:butt;stroke-linejoin:miter;stroke-miterlimit:10;stroke-dasharray:none;stroke-opacity:1"
       id="path256" /><path
       d="m 532,194.25 h 6.5"
       style="fill:none;stroke:#000000;stroke-width:0.75;stroke-linecap:butt;stroke-linejoin:miter;stroke-miterlimit:10;stroke-dasharray:none;stroke-opacity:1"
       id="path258" /><path
       d="m 532,203.5 h 6.5"
       style="fill:none;stroke:#000000;stroke-width:0.75;stroke-linecap:butt;stroke-linejoin:miter;stroke-miterlimit:10;stroke-dasharray:none;stroke-opacity:1"
       id="path260" /><path
       d="m 525.5,212.75 h 13"
       style="fill:none;stroke:#000000;stroke-width:0.75;stroke-linecap:butt;stroke-linejoin:miter;stroke-miterlimit:10;stroke-dasharray:none;stroke-opacity:1"
       id="path262" /><path
       d="m 532,222 h 6.5"
       style="fill:none;stroke:#000000;stroke-width:0.75;stroke-linecap:butt;stroke-linejoin:miter;stroke-miterlimit:10;stroke-dasharray:none;stroke-opacity:1"
       id="path264" /><path
       d="m 532,231.25 h 6.5"
       style="fill:none;stroke:#000000;stroke-width:0.75;stroke-linecap:butt;stroke-linejoin:miter;stroke-miterlimit:10;stroke-dasharray:none;stroke-opacity:1"
       id="path266" /><path
       d="m 532,240.5 h 6.5"
       style="fill:none;stroke:#000000;stroke-width:0.75;stroke-linecap:butt;stroke-linejoin:miter;stroke-miterlimit:10;stroke-dasharray:none;stroke-opacity:1"
       id="path268" /><path
       d="m 525.5,249.75 h 13"
       style="fill:none;stroke:#000000;stroke-width:0.75;stroke-linecap:butt;stroke-linejoin:miter;stroke-miterlimit:10;stroke-dasharray:none;stroke-opacity:1"
       id="path270" /><path
       d="m 532,259 h 6.5"
       style="fill:none;stroke:#000000;stroke-width:0.75;stroke-linecap:butt;stroke-linejoin:miter;stroke-miterlimit:10;stroke-dasharray:none;stroke-opacity:1"
       id="path272" /><path
       d="m 532,268.25 h 6.5"
       style="fill:none;stroke:#000000;stroke-width:0.75;stroke-linecap:butt;stroke-linejoin:miter;stroke-miterlimit:10;stroke-dasharray:none;stroke-opacity:1"
       id="path274" /><path
       d="m 532,277.5 h 6.5"
       style="fill:none;stroke:#000000;stroke-width:0.75;stroke-linecap:butt;stroke-linejoin:miter;stroke-miterlimit:10;stroke-dasharray:none;stroke-opacity:1"
       id="path276" /><path
       d="m 525.5,286.5 h 13"
       style="fill:none;stroke:#000000;stroke-width:0.75;stroke-linecap:butt;stroke-linejoin:miter;stroke-miterlimit:10;stroke-dasharray:none;stroke-opacity:1"
       id="path278" /><path
       d="m 532,295.75 h 6.5"
       style="fill:none;stroke:#000000;stroke-width:0.75;stroke-linecap:butt;stroke-linejoin:miter;stroke-miterlimit:10;stroke-dasharray:none;stroke-opacity:1"
       id="path280" /><path
       d="m 532,305 h 6.5"
       style="fill:none;stroke:#000000;stroke-width:0.75;stroke-linecap:butt;stroke-linejoin:miter;stroke-miterlimit:10;stroke-dasharray:none;stroke-opacity:1"
       id="path282" /><path
       d="m 532,314.25 h 6.5"
       style="fill:none;stroke:#000000;stroke-width:0.75;stroke-linecap:butt;stroke-linejoin:miter;stroke-miterlimit:10;stroke-dasharray:none;stroke-opacity:1"
       id="path284" /><path
       d="m 525.5,323.5 h 13"
       style="fill:none;stroke:#000000;stroke-width:0.75;stroke-linecap:butt;stroke-linejoin:miter;stroke-miterlimit:10;stroke-dasharray:none;stroke-opacity:1"
       id="path286" /><path
       d="m 532,332.75 h 6.5"
       style="fill:none;stroke:#000000;stroke-width:0.75;stroke-linecap:butt;stroke-linejoin:miter;stroke-miterlimit:10;stroke-dasharray:none;stroke-opacity:1"
       id="path288" /><path
       d="m 532,342 h 6.5"
       style="fill:none;stroke:#000000;stroke-width:0.75;stroke-linecap:butt;stroke-linejoin:miter;stroke-miterlimit:10;stroke-dasharray:none;stroke-opacity:1"
       id="path290" /><path
       d="m 532,351.25 h 6.5"
       style="fill:none;stroke:#000000;stroke-width:0.75;stroke-linecap:butt;stroke-linejoin:miter;stroke-miterlimit:10;stroke-dasharray:none;stroke-opacity:1"
       id="path292" /><path
       d="m 525.5,360.5 h 13"
       style="fill:none;stroke:#000000;stroke-width:0.75;stroke-linecap:butt;stroke-linejoin:miter;stroke-miterlimit:10;stroke-dasharray:none;stroke-opacity:1"
       id="path294" /><path
       d="m 525.5,360.5 h 13"
       style="fill:none;stroke:#000000;stroke-width:0.75;stroke-linecap:butt;stroke-linejoin:miter;stroke-miterlimit:10;stroke-dasharray:none;stroke-opacity:1"
       id="path296" /><path
       d="m 532,369.75 h 6.5"
       style="fill:none;stroke:#000000;stroke-width:0.75;stroke-linecap:butt;stroke-linejoin:miter;stroke-miterlimit:10;stroke-dasharray:none;stroke-opacity:1"
       id="path298" /><path
       d="m 93.5,65.25 1.25,3.25 0.5,3 3.75,3 1.25,3 4,2.75 2.25,3.25 1.25,2.75 3.5,3 3,2.75 1.75,2.75 2.75,2.75 3.5,2.75 4.25,2.5 4,2.75 4.75,2.5 2,2.75 2.5,2.5 2,2.5 3,2.25 1.5,2.5 2,2.5 2.75,2 2.25,2.25 2.5,2.25 5.25,2.5 2.75,2.25 2.25,2.5 3,2.25 2.75,2.25 3,2.25 3.25,2.25 3.5,2.25 3,1.75 4.75,2 3.25,2.25 4.25,2 2.75,2 4.25,2 4.25,2 4.5,2 4.25,2 3.5,1.75 3.5,2 5.25,1.75 6.25,1.75 5.25,2 2,1.75 2.5,2 4.5,1.5 3.75,1.75 6,1.75 4.25,1.75 3,2 6.75,1.5 4.5,1.75 4.25,1.5 5,2 5.25,1.5 7,1.75 5.5,1.5 3.25,1.5 4,1.75 4.5,1.25 2,1.75 4.5,1.5 4.25,1.5 5.75,1.25 4,1.5 6.75,1.5 4.5,1.5 3.75,1.25 4,1.5 4.5,1.25 4.5,1.25 5.25,1.5 4.25,1.25 6.75,1 5.5,1.5 5.75,1.25 6.25,1.25 4.75,1.25 4.5,1.5 6.25,1.5 5.5,1.25 6.25,1.25 3.5,1.5 5.25,1.25 3,1.25 6.5,1 8.5,1.25 6.5,1.25 9,1.25 6.25,1 6.75,1 11.25,1.25 6.5,1 7.75,0.5 6.25,1 8.75,0.75 14,0.5"
       style="fill:none;stroke:#ccccff;stroke-width:0.75;stroke-linecap:butt;stroke-linejoin:miter;stroke-miterlimit:10;stroke-dasharray:none;stroke-opacity:1"
       id="path300" /><path
       d="m 93.5,65.25 1.25,2.75 1.5,3.25 2.5,2.75 2.5,3.25 3.5,2.75 1.75,2.75 3.75,2.75 2,3 3.75,2.5 2,2.75 1.5,3 3.25,2.5 2.75,2.75 2.75,2.5 1.5,2.5 5,2.75 3.25,2.75 4.5,2.5 3.25,2.25 2.75,2.25 4,2.25 5.5,2.25 3,2.5 5,2.5 2.25,2.5 3,2.25 2.5,2.25 2.5,2.25 3.75,2 2.25,2.25 3.5,2 5,2.25 3.5,2 3.25,2 5.25,2 4.5,2 4.25,2 6,1.75 3,2 3,2 3.75,2 4.75,1.75 3.25,1.75 4,1.75 4.5,2 3.25,1.75 4,2 4.75,1.5 3.25,2 6.5,1.5 4.5,2 2.5,2 4.25,1.75 2.75,1.5 3.75,1.75 3.25,1.5 6.25,1.5 4.75,1.5 2.25,1.75 4.75,1.75 4.75,1.5 4.25,1.75 4,1.5 3.5,2 5.75,1.25 6.25,1.5 7,1.75 5.25,1.5 3.75,1.5 5.25,1.25 2.5,1.75 4,1.25 4.75,1.5 6,1.25 3.25,1.5 6,1.5 4,1.25 3.75,1.5 5,1.25 6.75,1.25 7.75,1.5 4.75,1.25 7,1.25 6.75,1.25 4.25,1.25 8.25,1.25 6.5,1.25 3.75,1.5 4.5,1.25 6.75,1 4.75,1.25 8.5,1.25 4,1.25 6.25,1 8,1 7,1 7.5,0.75 7.25,1 12.75,0.75 9.25,0.75"
       style="fill:none;stroke:#ffcccc;stroke-width:0.75;stroke-linecap:butt;stroke-linejoin:miter;stroke-miterlimit:10;stroke-dasharray:none;stroke-opacity:1"
       id="path302" /><path
       d="m 93.5,65.25 0.5,3.25 1,3.25 2.25,3.5 1.75,3.25 2.75,3 3.5,3 2.5,3 2.5,3 3.5,2.75 2.5,2.5 2.5,2.5 3.25,2.75 2,3 2.75,2.5 4,2.25 3,2.5 3.5,2.5 2,2.5 4.75,2.25 5.25,2.25 2.75,2.25 2.75,2 3.5,2.25 5.25,2.25 1.75,2.25 2.5,2.25 2.75,2 3,2.25 4.75,2 1.75,2 3,2.25 4.75,2.25 4.25,2 4.75,2.25 4.25,2 6.25,2 4.75,2 3.25,2 3.75,2 4,1.75 4.5,2 3.5,1.75 4.5,2 5,1.75 1.75,1.75 3.25,1.75 5,1.75 3.75,1.75 2.75,1.75 4.75,1.75 2.75,1.75 5.25,1.75 4.5,1.5 4.25,1.75 5,1.75 2.75,1.75 3.25,1.5 4.75,1.5 3.75,2 4.75,1.75 4.75,1.5 4.75,1.75 6.5,1.5 2.75,1.75 6,1.5 5.75,1.75 7,1.5 4,1.5 3.75,1.5 5.25,1.75 6,1.5 4.75,1.25 2.5,1.25 4.25,1.5 6,1.25 4.75,1.25 5.5,1.25 8,1 4,1.5 4.75,1 6.75,1.5 4.75,1.25 5,1.25 8.5,1.25 5.75,1.25 4.5,1.25 3.75,1.25 5.75,1.25 7.5,1.25 5.25,1.25 6.25,1.25 6.5,1 5.25,1.25 8,1.25 6.25,1 4.5,1 10.75,1 6.25,1 11,0.75 9.75,1"
       style="fill:none;stroke:#9999cc;stroke-width:0.75;stroke-linecap:butt;stroke-linejoin:miter;stroke-miterlimit:10;stroke-dasharray:none;stroke-opacity:1"
       id="path304" /><path
       d="m 93.5,65.25 1,3.25 1,3.5 1.75,3.25 2.75,3.25 2.75,3 2.25,3 4,2.75 3,3 2.25,2.75 3.25,3 1.75,2.5 2.5,2.75 2.5,2.75 1.25,2.75 3.75,2.5 3,2.75 2.5,2.5 2.25,2.25 3.25,2.5 2.75,2 1.75,2.25 1.75,2.5 2.75,2.25 3.75,2 2.5,2.25 5.25,2.25 3.25,2.25 3.25,2.25 5.25,2 3.25,2.5 3.5,2 4,2.25 3.25,2 1.5,2 4.5,2.25 4.5,1.75 5.25,2 2.75,2 4,2 3.25,1.75 6.25,2 3,1.75 3.75,2 5.25,2 3,2 5.75,2 6,1.75 1.5,1.75 3,1.75 5.25,1.75 4,1.75 3.75,1.75 4.75,1.75 4.75,1.5 3,1.5 3.5,1.5 5,1.75 4.5,1.5 5.25,1.5 4,1.75 3.25,1.5 4.5,1.5 7.25,1.5 2.5,1.25 6.25,1.75 5.75,1.5 4.75,1.5 6.75,1.5 2.5,1.5 4.75,1.25 4.75,1.5 7.5,1.5 6.25,1.25 4.75,1.25 3.75,1.5 5.25,1.5 3.5,1.5 6,1 5.25,1.5 8.5,1 5.25,1.25 5,1.5 6.75,1 6.75,1.25 5.75,1 6.25,1.25 3.5,1.25 7.5,1.25 6.25,1.25 3.75,1.25 4.5,1.25 5.25,1 7.5,1.25 9.25,1.25 9.25,1 7.25,1 8,1 7.75,1 9.75,1 9.25,0.75"
       style="fill:none;stroke:#cc9999;stroke-width:0.75;stroke-linecap:butt;stroke-linejoin:miter;stroke-miterlimit:10;stroke-dasharray:none;stroke-opacity:1"
       id="path306" /><g
       id="g308"
       transform="translate(-7.5)"><text
         transform="matrix(1,0,0,-1,388.163,333.32)"
         style="font-variant:normal;font-weight:normal;font-size:13.5322px;font-family:Helvetica;-inkscape-font-specification:Helvetica;writing-mode:lr-tb;fill:#000000;fill-opacity:1;fill-rule:nonzero;stroke:none"
         id="text312"><tspan
           x="0 8.2681742 12.774397 20.2983 23.302448 30.826351 33.830502 41.354404 48.878307 52.640259 60.164162 63.926113 68.432335 77.458313 87.228561 96.99881 104.90161 112.42551 116.18747 123.71137 131.23528 138.75919"
           y="0"
           sodipodi:role="line"
           id="tspan310">Training 1 (AUC=0.686)</tspan></text></g><path
       d="m 354.25,337 h 22"
       style="fill:none;stroke:#ccccff;stroke-width:0.75;stroke-linecap:butt;stroke-linejoin:miter;stroke-miterlimit:10;stroke-dasharray:none;stroke-opacity:1"
       id="path314" /><g
       id="g316"
       transform="translate(-7.5)"><text
         transform="matrix(1,0,0,-1,388.163,314.802)"
         style="font-variant:normal;font-weight:normal;font-size:13.5322px;font-family:Helvetica;-inkscape-font-specification:Helvetica;writing-mode:lr-tb;fill:#000000;fill-opacity:1;fill-rule:nonzero;stroke:none"
         id="text320"><tspan
           x="0 8.2681742 15.792077 22.558178 26.320129 29.324278 36.848179 44.372086 48.134037 55.65794 59.419891 63.926113 72.952087 82.722336 92.492584 100.39539 107.9193 111.68124 119.20515 126.72905 134.25296"
           y="0"
           sodipodi:role="line"
           id="tspan318">Testing 1 (AUC=0.670)</tspan></text></g><path
       d="m 354.25,318.75 h 22"
       style="fill:none;stroke:#ffcccc;stroke-width:0.75;stroke-linecap:butt;stroke-linejoin:miter;stroke-miterlimit:10;stroke-dasharray:none;stroke-opacity:1"
       id="path322" /><g
       id="g324"
       transform="translate(-7.5)"><text
         transform="matrix(1,0,0,-1,388.163,296.998)"
         style="font-variant:normal;font-weight:normal;font-size:13.5322px;font-family:Helvetica;-inkscape-font-specification:Helvetica;writing-mode:lr-tb;fill:#000000;fill-opacity:1;fill-rule:nonzero;stroke:none"
         id="text328"><tspan
           x="0 8.2681742 12.774397 20.2983 23.302448 30.826351 33.830502 41.354404 48.878307 52.640259 60.164162 63.926113 68.432335 77.458313 87.228561 96.99881 104.90161 112.42551 116.18747 123.71137 131.23528 138.75919"
           y="0"
           sodipodi:role="line"
           id="tspan326">Training 2 (AUC=0.673)</tspan></text></g><path
       d="m 354.25,300.5 h 22"
       style="fill:none;stroke:#9999cc;stroke-width:0.75;stroke-linecap:butt;stroke-linejoin:miter;stroke-miterlimit:10;stroke-dasharray:none;stroke-opacity:1"
       id="path330" /><g
       id="g332"
       transform="translate(-7.5)"><text
         transform="matrix(1,0,0,-1,388.163,278.48)"
         style="font-variant:normal;font-weight:normal;font-size:13.5322px;font-family:Helvetica;-inkscape-font-specification:Helvetica;writing-mode:lr-tb;fill:#000000;fill-opacity:1;fill-rule:nonzero;stroke:none"
         id="text336"><tspan
           x="0 8.2681742 15.792077 22.558178 26.320129 29.324278 36.848179 44.372086 48.134037 55.65794 59.419891 63.926113 72.952087 82.722336 92.492584 100.39539 107.9193 111.68124 119.20515 126.72905 134.25296"
           y="0"
           sodipodi:role="line"
           id="tspan334">Testing 2 (AUC=0.686)</tspan></text></g><path
       d="m 354.25,282 h 22"
       style="fill:none;stroke:#cc9999;stroke-width:0.75;stroke-linecap:butt;stroke-linejoin:miter;stroke-miterlimit:10;stroke-dasharray:none;stroke-opacity:1"
       id="path338" /><path
       d="m 122.0359,339.29599 1.4168,-0.35785 q -0.44549,-1.74544 -1.60668,-2.66563 -1.15389,-0.91288 -2.82629,-0.91288 -1.73083,0 -2.81899,0.70109 -1.08085,0.7084 -1.65049,2.04487 -0.56234,1.33646 -0.56234,2.8701 0,1.67241 0.63537,2.91393 0.64267,1.24883 1.81846,1.8915 1.1831,0.64997 2.5999,0.64997 1.60668,0 2.70214,-0.81794 1.09546,-0.81795 1.52634,-2.30047 l -1.39489,-0.32864 q -0.37245,1.16849 -1.08085,1.70162 -0.7084,0.53312 -1.78195,0.53312 -1.23422,0 -2.06677,-0.59155 -0.82525,-0.59155 -1.16119,-1.59207 -0.33594,-0.99322 -0.33594,-2.05216 0,-1.36568 0.39436,-2.38811 0.40167,-1.01513 1.24152,-1.51904 0.83986,-0.50391 1.81847,-0.50391 1.1904,0 2.01565,0.68649 0.82525,0.68649 1.11737,2.03756 z"
       id="path1206"
       style="font-variant:normal;font-weight:normal;font-size:14.9567px;font-family:Helvetica;-inkscape-font-specification:Helvetica;writing-mode:lr-tb;fill:#000000;fill-opacity:1;fill-rule:nonzero;stroke:none" /><path
       d="m 125.43663,335.54221 v 10.70631 h 1.41679 v -10.70631 z"
       id="path1208"
       style="font-variant:normal;font-weight:normal;font-size:14.9567px;font-family:Helvetica;-inkscape-font-specification:Helvetica;writing-mode:lr-tb;fill:#000000;fill-opacity:1;fill-rule:nonzero;stroke:none" /><path
       d="m 136.21369,336.718 0.18988,-1.16119 q -0.55503,-0.11685 -0.99322,-0.11685 -0.7157,0 -1.11007,0.2264 -0.39436,0.22639 -0.55503,0.59155 -0.16067,0.37245 -0.16067,1.55555 v 4.46218 h -0.964 v 1.02243 h 0.964 v 1.92071 l 1.30725,0.78873 v -2.70944 h 1.32186 v -1.02243 h -1.32186 v -4.53521 q 0,-0.56234 0.0657,-0.723 0.073,-0.16067 0.2264,-0.25561 0.16066,-0.0949 0.45279,-0.0949 0.21909,0 0.57694,0.0511 z"
       id="path1210"
       style="font-variant:normal;font-weight:normal;font-size:14.9567px;font-family:Helvetica;-inkscape-font-specification:Helvetica;writing-mode:lr-tb;fill:#000000;fill-opacity:1;fill-rule:nonzero;stroke:none" /><path
       d="m 142.81088,338.03986 1.35837,-0.16797 q -0.32134,-1.1904 -1.1904,-1.84768 -0.86907,-0.65728 -2.22014,-0.65728 -1.70161,0 -2.70214,1.04434 -0.99321,1.05164 -0.99321,2.94314 0,1.95723 1.00782,3.03808 1.00782,1.08086 2.6145,1.08086 1.55556,0 2.54147,-1.05895 0.98592,-1.05895 0.98592,-2.97965 0,-0.11685 -0.007,-0.35055 h -5.78403 q 0.073,-1.27804 0.723,-1.95723 0.64998,-0.67918 1.62129,-0.67918 0.723,0 1.23422,0.37976 0.51121,0.37976 0.81064,1.21231 z m -4.31612,2.12519 h 4.33072 q -0.0876,0.97862 -0.49661,1.46792 -0.62806,0.75952 -1.62858,0.75952 -0.90558,0 -1.52635,-0.60615 -0.61345,-0.60616 -0.67918,-1.62129 z"
       id="path1212"
       style="font-variant:normal;font-weight:normal;font-size:14.9567px;font-family:Helvetica;-inkscape-font-specification:Helvetica;writing-mode:lr-tb;fill:#000000;fill-opacity:1;fill-rule:nonzero;stroke:none" /><path
       d="m 145.29164,337.85728 1.29994,0.20449 q 0.10955,-0.78143 0.60616,-1.19771 0.50391,-0.41627 1.40219,-0.41627 0.90558,0 1.34377,0.36515 0.43818,0.37246 0.43818,0.86907 0,0.44548 -0.38706,0.70109 -0.27022,0.17528 -1.34377,0.44549 -1.44601,0.36515 -2.00834,0.62806 -0.55504,0.27022 -0.84716,0.73762 -0.28482,0.4747 -0.28482,1.04434 0,0.51851 0.2337,0.9567 0.241,0.44549 0.64997,0.73761 0.30673,0.22639 0.83255,0.37976 0.53313,0.16067 1.13928,0.16067 0.91289,0 1.59938,-0.26291 0.69379,-0.26291 1.02243,-0.71571 0.32863,-0.44548 0.45279,-1.1977 l -1.28534,-0.17527 q -0.0876,0.59885 -0.51122,0.93479 -0.41628,0.33594 -1.1831,0.33594 -0.90558,0 -1.29264,-0.29942 -0.38707,-0.29943 -0.38707,-0.7011 0,-0.25561 0.16067,-0.46009 0.16067,-0.21179 0.50391,-0.35055 0.19719,-0.073 1.16119,-0.33594 1.39489,-0.37246 1.94262,-0.61346 0.55504,-0.2337 0.86907,-0.68649 0.31403,-0.45279 0.31403,-1.12467 0,-0.65728 -0.38706,-1.24153 -0.37976,-0.57694 -1.10277,-0.89828 -0.723,-0.31403 -1.63589,-0.31403 -1.51173,0 -2.30777,0.62807 -0.78873,0.62806 -1.00782,1.86228 z"
       id="path1214"
       style="font-variant:normal;font-weight:normal;font-size:14.9567px;font-family:Helvetica;-inkscape-font-specification:Helvetica;writing-mode:lr-tb;fill:#000000;fill-opacity:1;fill-rule:nonzero;stroke:none" /><path
       d="m 156.16593,336.718 0.18988,-1.16119 q -0.55503,-0.11685 -0.99322,-0.11685 -0.7157,0 -1.11007,0.2264 -0.39436,0.22639 -0.55503,0.59155 -0.16067,0.37245 -0.16067,1.55555 v 4.46218 h -0.964 v 1.02243 h 0.964 v 1.92071 l 1.30725,0.78873 v -2.70944 h 1.32186 v -1.02243 h -1.32186 v -4.53521 q 0,-0.56234 0.0657,-0.723 0.073,-0.16067 0.2264,-0.25561 0.16066,-0.0949 0.45279,-0.0949 0.21909,0 0.57694,0.0511 z"
       id="path1216"
       style="font-variant:normal;font-weight:normal;font-size:14.9567px;font-family:Helvetica;-inkscape-font-specification:Helvetica;writing-mode:lr-tb;fill:#000000;fill-opacity:1;fill-rule:nonzero;stroke:none" /><path
       d="m 157.46108,344.73678 v 1.51174 h 1.31456 v -1.51174 z m 0,-9.19457 v 7.75586 h 1.31456 v -7.75586 z"
       id="path1218"
       style="font-variant:normal;font-weight:normal;font-size:14.9567px;font-family:Helvetica;-inkscape-font-specification:Helvetica;writing-mode:lr-tb;fill:#000000;fill-opacity:1;fill-rule:nonzero;stroke:none" /><path
       d="m 160.77417,335.54221 v 7.75586 h 1.1831 v -1.10276 q 0.85446,1.27804 2.46844,1.27804 0.70109,0 1.28534,-0.25561 0.59155,-0.24831 0.88367,-0.65728 0.29212,-0.40897 0.40897,-0.97131 0.073,-0.36515 0.073,-1.27804 v -4.7689 h -1.31455 v 4.71778 q 0,0.80334 -0.15336,1.19771 -0.15337,0.40167 -0.54774,0.63537 -0.38706,0.241 -0.91288,0.241 -0.83985,0 -1.45331,-0.53313 -0.60616,-0.53312 -0.60616,-2.02295 v -4.23578 z"
       id="path1220"
       style="font-variant:normal;font-weight:normal;font-size:14.9567px;font-family:Helvetica;-inkscape-font-specification:Helvetica;writing-mode:lr-tb;fill:#000000;fill-opacity:1;fill-rule:nonzero;stroke:none" /><path
       d="m 168.84909,334.89954 1.27803,-0.18988 q 0.0803,-0.59155 0.44549,-0.86177 0.48931,-0.36515 1.33646,-0.36515 0.91289,0 1.4095,0.36515 0.49661,0.36516 0.67188,1.02243 0.10224,0.40167 0.0949,1.68701 -0.86176,-1.01512 -2.1471,-1.01512 -1.59938,0 -2.47575,1.15388 -0.87637,1.15389 -0.87637,2.76787 0,1.11007 0.40167,2.04486 0.40167,0.9421 1.16119,1.45331 0.76683,0.51122 1.79656,0.51122 1.37298,0 2.26395,-1.11007 v 0.93479 h 1.21231 v -6.70422 q 0,-1.81116 -0.37245,-2.56338 -0.36516,-0.75952 -1.16849,-1.19771 -0.79604,-0.43818 -1.96453,-0.43818 -1.38759,0 -2.24205,0.62806 -0.85446,0.62077 -0.82524,1.8769 z m 1.08815,4.65936 q 0,-1.52635 0.60616,-2.22744 0.60615,-0.7011 1.51904,-0.7011 0.90558,0 1.51904,0.6938 0.61346,0.70109 0.61346,2.19092 0,1.4241 -0.63537,2.1471 -0.62806,0.72301 -1.51904,0.72301 -0.87637,0 -1.48983,-0.7157 -0.61346,-0.7084 -0.61346,-2.11059 z"
       id="path1222"
       style="font-variant:normal;font-weight:normal;font-size:14.9567px;font-family:Helvetica;-inkscape-font-specification:Helvetica;writing-mode:lr-tb;fill:#000000;fill-opacity:1;fill-rule:nonzero;stroke:none" /><path
       d="m 117.09902,316.7754 0.18988,-1.16118 q -0.55503,-0.11685 -0.99322,-0.11685 -0.7157,0 -1.11007,0.22639 -0.39436,0.2264 -0.55503,0.59155 -0.16067,0.37246 -0.16067,1.55556 v 4.46218 h -0.964 v 1.02243 h 0.964 v 1.92071 l 1.30725,0.78873 v -2.70944 h 1.32186 v -1.02243 h -1.32186 v -4.53521 q 0,-0.56234 0.0657,-0.72301 0.073,-0.16067 0.2264,-0.25561 0.16066,-0.0949 0.45279,-0.0949 0.21909,0 0.57694,0.0511 z"
       id="path1224"
       style="font-variant:normal;font-weight:normal;font-size:14.9567px;font-family:Helvetica;-inkscape-font-specification:Helvetica;writing-mode:lr-tb;fill:#000000;fill-opacity:1;fill-rule:nonzero;stroke:none" /><path
       d="m 121.25699,316.7754 0.18988,-1.16118 q -0.55504,-0.11685 -0.99322,-0.11685 -0.7157,0 -1.11007,0.22639 -0.39436,0.2264 -0.55503,0.59155 -0.16067,0.37246 -0.16067,1.55556 v 4.46218 h -0.96401 v 1.02243 h 0.96401 v 1.92071 l 1.30725,0.78873 v -2.70944 h 1.32186 v -1.02243 h -1.32186 v -4.53521 q 0,-0.56234 0.0657,-0.72301 0.073,-0.16067 0.22639,-0.25561 0.16067,-0.0949 0.45279,-0.0949 0.2191,0 0.57695,0.0511 z"
       id="path1226"
       style="font-variant:normal;font-weight:normal;font-size:14.9567px;font-family:Helvetica;-inkscape-font-specification:Helvetica;writing-mode:lr-tb;fill:#000000;fill-opacity:1;fill-rule:nonzero;stroke:none" /><path
       d="m 121.85836,315.59961 v 1.31455 l 5.48461,6.85759 q 0.58424,0.73031 1.11006,1.27074 h -5.97391 v 1.26343 h 7.66823 v -1.26343 l -6.01043,-7.42723 -0.64998,-0.75222 h 6.83568 v -1.26343 z"
       id="path1228"
       style="font-variant:normal;font-weight:normal;font-size:14.9567px;font-family:Helvetica;-inkscape-font-specification:Helvetica;writing-mode:lr-tb;fill:#000000;fill-opacity:1;fill-rule:nonzero;stroke:none" /></g></svg>
